<svg id="Layer_1" data-name="Layer 1" xmlns="http://www.w3.org/2000/svg" viewBox="0 0 1297.45 1202.76"><defs><style>.cls-1{fill:#004a49;}.cls-2{fill:#17393d;}.cls-3{fill:#af94ff;}.cls-4{fill:#1552e8;}</style></defs><path class="cls-1" d="M1384.51,2058.38c-46.38-6.4-74-47.67-88.45-88.67-16.49-46.85-19.13-98-21-147.24-2-52,.47-103.71,10-154.92,9-48.42,22.77-95.78,36.47-143,26.65-92,54.4-187,44.18-283.81-9.39-88.92-49.86-173.12-111.69-237.47-62.18-64.7-146-108.06-234.93-120.57-10.84-1.52-21.73-2.55-32.65-3.17-2.31-.13,1.77,5,2.07,5.34,1.62,1.89,4.68,5.44,7.45,5.6,90.77,5.1,180.42,42.45,245.92,105.93,65,63,105.33,150.57,113.46,240.55,8.76,97.06-19.82,192-46.5,284.13-13.58,46.91-27,94-35.65,142.11-9.28,51.82-11.14,104.17-8.79,156.7,2.14,48,5.25,97.39,21.52,143,14.3,40.09,41,79.28,80.35,98.17a93.8,93.8,0,0,0,27.77,8.29c2.28.31-1.83-5.06-2.07-5.33-1.75-2.05-4.57-5.21-7.45-5.6Z" transform="translate(-97.27 -866.56)"/><path class="cls-1" d="M1131,922c17.25,5.12,32.93,14,47,24.83,3.44,2.65,6.26,5,9.9,8.19,1.6,1.41,3.18,2.83,4.75,4.28.23.21,1.41,1.31.47.43l1.09,1c.91.86,1.81,1.73,2.7,2.6q4.62,4.49,9.06,9.16l1.15,1.22c.26.28,1.29,1.38.25.26l1.83,2c1.43,1.57,2.86,3.15,4.27,4.75q4.11,4.66,8.06,9.46l1,1.21,2.1,2.62c1.25,1.58,2.48,3.17,3.71,4.77,4.87,6.38,9.82,13.32,13.9,19.52a367,367,0,0,1,24,42.08A393.49,393.49,0,0,1,1305,1251a364.89,364.89,0,0,1-17.82,96.56q-1.9,5.76-4,11.43c-.79,2.15,2.63,5.32,4,6.63.4.39,6.1,5.42,6.63,4a366.81,366.81,0,0,0,21.47-98.36,392.13,392.13,0,0,0-5.26-100.77,399.56,399.56,0,0,0-30.36-96.16,389.09,389.09,0,0,0-55.24-86.92,342.94,342.94,0,0,0-39-39.69c-14.82-12.71-31.13-24-49.22-31.56a129.89,129.89,0,0,0-13-4.6c-3-.88-.65,2.73.09,3.71,1.79,2.36,4.72,5.89,7.73,6.78Z" transform="translate(-97.27 -866.56)"/><path class="cls-1" d="M1290.89,1355.29c-25.29,42.1-48.77,85.34-68.94,130.14-20,44.4-36.72,90.36-48.43,137.65-11.27,45.51-17.79,92.2-17.91,139.12a496,496,0,0,0,17.23,132.44,408.49,408.49,0,0,0,55.81,121.87q4.62,6.79,9.54,13.37c1.76,2.36,4.73,6,7.73,6.78s.73-2.62-.09-3.72c-26.23-35.14-45.56-75-58.51-116.85-13.13-42.41-19.65-86.78-20.64-131.12-1-45.76,4.07-91.42,14-136.07,10.48-47.38,26.22-93.47,45.39-138s41.76-87.65,66.29-129.51q4.55-7.77,9.19-15.49c1.84-3.05-9.71-12.1-10.61-10.6Z" transform="translate(-97.27 -866.56)"/><path class="cls-1" d="M1249.39,1187.08l.6,1.12c.65,1.24-.4-.84.21.42.36.75.73,1.51,1.09,2.28.76,1.65,1.46,3.32,2.12,5a93.52,93.52,0,0,1,3.22,9.89,114.07,114.07,0,0,1,3.22,19.73c1.14,14.12.15,28.33-1.57,42.35-1,8-2.2,15.91-3.48,23.84-.14.89,1.24,2.67,1.65,3.23a25.45,25.45,0,0,0,4,4.22c.69.58,5,4.25,5.33,2.07,2.29-14.25,4.45-28.56,5.24-43,.76-14.1.21-28.42-3.21-42.17a100.57,100.57,0,0,0-9-23.39,19.67,19.67,0,0,0-3.36-4.13,20.63,20.63,0,0,0-4.14-3.37c-.55-.3-1.89-1.21-2.49-.61s.38,2.06.61,2.49Z" transform="translate(-97.27 -866.56)"/><path class="cls-1" d="M1258.2,1185.63a34.82,34.82,0,0,1,5,.24,33.58,33.58,0,0,1,4.6.89,38.81,38.81,0,0,1,4.71,1.69c.41.18.83.36,1.23.56s1,.51.29.12c.8.42,1.6.86,2.37,1.33l1,.62c.17.1.33.21.49.32.56.35-.49-.32-.47-.33.18-.1,1.94,1.43,2.19,1.62,1,.76-1.12-1-.18-.15l1,.9c.07.07.34.38.43.39s-1.28-1.22-.74-.69c.37.36.74.72,1.11,1.1.07.07.31.4.41.42s-1.2-1.31-.7-.75l.78.88a9.68,9.68,0,0,1,.88,1c.05.07-1-1.25-.53-.64l.48.61.7,1c.12.18.25.35.37.52.63.89-.1-.08-.15-.22a15.08,15.08,0,0,0,1.46,2.33c.47.79.91,1.59,1.35,2.4s-.19-.41.2.41c.24.51.49,1,.72,1.53.76,1.68,1.44,3.38,2,5.12a66.35,66.35,0,0,1,2.74,10.47,96.6,96.6,0,0,1,1.28,22.46,107.51,107.51,0,0,1-4.36,24.78l.16-.54a106.53,106.53,0,0,1-16.44,32.78c-.5.67.33,2,.62,2.49a20.31,20.31,0,0,0,3.36,4.14,20,20,0,0,0,4.14,3.36c.47.27,2,1.27,2.49.62a108.08,108.08,0,0,0,21-58.31,92,92,0,0,0-3.54-31.61,69.24,69.24,0,0,0-19.78-30.76c-8.74-8-20.06-14.29-32.23-14-2.3,0,1.68,4.9,2.07,5.33a26.35,26.35,0,0,0,4.22,4c.88.62,2.1,1.66,3.23,1.64Z" transform="translate(-97.27 -866.56)"/><path class="cls-1" d="M1250.86,1183.51c-4.41-3.24-9.39-4.84-14.77-3.32a19.27,19.27,0,0,0-11.16,8.31c-2.89,4.49-4.31,9.8-5.31,15-1,5-1.65,10-2.21,15-2.21,19.85-1.79,40.49,4.75,59.55a86.55,86.55,0,0,0,18.47,30.77,31.62,31.62,0,0,0,4.22,4c.66.48,2.25,1.71,3.23,1.64,2.26-.16-1.8-5-2.07-5.33-.6-.65-1.2-1.3-1.77-2l-.74-.86c-.15-.19-.33-.38-.48-.58.12.16,1,1.27.43.53s-1.07-1.38-1.58-2.08c-.26-.35-.51-.7-.76-1.06l-.32-.45c-.74-1.05.55.84.13.21-.94-1.45-1.86-2.91-2.71-4.41-.43-.75-.84-1.51-1.24-2.27l-.26-.49c.08.14.45.9.06.11l-.64-1.33a83.9,83.9,0,0,1-3.83-9.63,84.92,84.92,0,0,1-2.62-9.82c-3-14.27-3.06-29-1.69-43.51.78-8.28,1.7-16.87,4.1-24.86l-.16.54c2.23-7.19,6.42-13.71,13.9-16.12l-.55.16a16,16,0,0,1,5.71-.7c.44,0,.88.09,1.31.17l.65.13c-.35-.09-.09,0,.1,0l.62.23c.06,0,1.07.41.36.13s.06,0,.19.12c.62.3-1.26-.91-.29-.2.64.47,2.26,1.72,3.23,1.64s.74-.91.48-1.55c-1.2-3-4.23-5.86-6.78-7.73Z" transform="translate(-97.27 -866.56)"/><path class="cls-1" d="M1253.75,1338c2.4,9.83,1.62,20.06-1.24,29.71l.17-.55c-5.64,18.65-18.49,33.59-32.36,46.78-4,3.76-8,7.41-12,11.06-.58.52.43,2.17.61,2.49a26.1,26.1,0,0,0,7.5,7.5c.58.32,1.85,1.19,2.5.61,20.07-18.09,41.4-37.94,46.33-65.84a54,54,0,0,0-.54-22.24c-.72-3-3.34-5.54-5.6-7.45a13.08,13.08,0,0,0-3.78-2.56c-.41-.15-1.8-.5-1.55.49Z" transform="translate(-97.27 -866.56)"/><path class="cls-1" d="M1235,1348.15a176.46,176.46,0,0,0-22.41,36.23A180.68,180.68,0,0,0,1199.4,1425a174.73,174.73,0,0,0-3,23.89c-.06,1,1.15,2.56,1.64,3.23a25.5,25.5,0,0,0,4,4.22c.59.5,5.21,4.26,5.34,2.07a177,177,0,0,1,7.23-40.7l-.16.54a178.42,178.42,0,0,1,22.38-47.43q4.17-6.24,8.88-12.1c.51-.65-.35-2-.62-2.49a25.77,25.77,0,0,0-7.5-7.5c-.49-.28-2-1.26-2.49-.62Z" transform="translate(-97.27 -866.56)"/><path class="cls-1" d="M1165.39,1300.08c-.65-1-1.27-2.08-1.87-3.14-.3-.52-.59-1.06-.88-1.59l-.48-.89c-.43-.8.17.34-.09-.17-1.1-2.24-2.14-4.5-3.07-6.82a86.08,86.08,0,0,1-4.27-13.84,93.49,93.49,0,0,1-1.6-29.42,90.72,90.72,0,0,1,3.35-16.64l-.17.54a71.43,71.43,0,0,1,5.51-13.65c2.25-4.08,5.4-7.65,10-9l-.54.16a13.81,13.81,0,0,1,5.12-.42c.4,0,.79.1,1.19.18l.5.1c-.46-.1.1,0,.16,0a19.75,19.75,0,0,1,2.5.94c.15.06.86.39.27.11s0,0,.11.06c.43.24.86.49,1.28.75l.48.31c.55.35-.51-.35-.5-.33.2.2,1.83,1.4.84.59s.26.23.5.44a6.38,6.38,0,0,0,.58.53s-1.25-1.21-.73-.68l1,1c.36.37.84,1.08-.55-.58l.54.59c.16.19,1.23,1.48.46.52s.25.33.42.55l.93,1.28c.1.14.48.71,0,0s.1.15.21.33c1.07,1.66,2,3.39,3,5.13l.69,1.31c.14.25.27.5.4.75-.09-.17-.4-.79,0,0s.94,1.9,1.39,2.86c.87,1.85,1.7,3.72,2.47,5.62a123.22,123.22,0,0,1,5.34,76.42c-.21.82,1.3,2.77,1.64,3.23a25.9,25.9,0,0,0,4,4.22c.81.68,4.8,4.22,5.34,2.07a126.28,126.28,0,0,0-14.42-95.37,68,68,0,0,0-9.72-12.18,50.1,50.1,0,0,0-12.9-9.65,17.91,17.91,0,0,0-10.29-2,15,15,0,0,0-9.11,5,34.65,34.65,0,0,0-5.53,9.62,89.44,89.44,0,0,0-3.87,11.25,91.11,91.11,0,0,0-3.23,23,95.77,95.77,0,0,0,11.37,46.19c.92,1.73,1.91,3.42,2.94,5.08a22.15,22.15,0,0,0,7.5,7.5c.55.31,1.89,1.22,2.49.62s-.36-2.09-.61-2.49Z" transform="translate(-97.27 -866.56)"/><path class="cls-1" d="M1165.89,1315.24a27.52,27.52,0,0,0,6.39,8.38,23.09,23.09,0,0,0,7.24,4.93,14,14,0,0,0,9.56.15c7.37-2.37,10-10.5,10.68-17.5.84-8.65,0-17.66-1.26-26.23a145.74,145.74,0,0,0-20-55,22,22,0,0,0-7.5-7.5c-.55-.31-1.89-1.22-2.49-.62s.37,2.08.62,2.5q2.3,3.75,4.37,7.64c.21.39.41.78.61,1.18.07.13.41.81,0,.07l1,2c.65,1.32,1.27,2.65,1.87,4a142.13,142.13,0,0,1,6.18,16.49,137.57,137.57,0,0,1,5.82,34.23c.26,6,.4,12.21-1.29,18l.16-.54c-1.52,4.93-4.53,9.23-9.63,10.78l.54-.16a13.32,13.32,0,0,1-6,.35c-.09,0-.84-.21-.39-.08s-.28-.11-.36-.14-.42-.18-.64-.25c-.54-.16.94.57.25.14-.91-.59,1.25.93.39.27a22.43,22.43,0,0,1,2.55,2.32,9.55,9.55,0,0,1,1.84,2.33c-.12-.28-.55-1.16,0,.1a21,21,0,0,0-6.78-7.73c-.84-.6-2.13-1.72-3.23-1.64-.86.06-.78.91-.48,1.55Z" transform="translate(-97.27 -866.56)"/><path class="cls-1" d="M1097.06,1126.45c-3.35-8.52-6.76-17.77-4-27l-.16.54c2.45-7.63,9-12.76,16.47-15l-.54.16a31.6,31.6,0,0,1,10.14-1.27,30.75,30.75,0,0,1,5,.65l.37.08c-.4-.09.38.11.45.13.44.12.87.25,1.3.39,1,.31,1.93.67,2.88,1.07.47.19.93.4,1.39.62l.52.24c.14.07.86.45.31.15s.16.1.29.17l.51.28c.5.28,1,.57,1.48.87.17.11,1.63,1.07.8.51s.4.28.63.44l1.23.93.45.35c.68.53-1.26-1.06-.35-.27.4.33.79.66,1.18,1,.24.21,1.48,1.35.42.36s.16.17.39.4c.42.42.82.84,1.23,1.26.66.67-1.19-1.3-.56-.6l.53.58c.3.34.61.68.9,1s.68.79,1,1.2c.14.17.6.74-.08-.1s0,0,.17.23c.6.77,1.19,1.55,1.77,2.35l.79,1.11a3.7,3.7,0,0,1,.45.65c-.47-.69-.57-.85-.32-.48l.21.33c1.22,1.83,2.37,3.71,3.47,5.62.55,1,1.09,1.93,1.61,2.9l.72,1.37c-.38-.72,0,0,0,.09.17.33.33.66.49,1,1,2,1.94,4.13,2.81,6.25a96.42,96.42,0,0,1,6.77,24.66,59.21,59.21,0,0,1-1.53,23.92l.16-.54c-2.92,9.71-9.44,18-19.41,21l.54-.16a31.91,31.91,0,0,1-13.68.76,31,31,0,0,1-6.37-1.61c-1-.36-2-.77-3-1.21-.54-.23-1.05-.49-1.58-.73-.71-.32,1,.54-.11-.06l-1-.55c-.44-.25-.89-.51-1.33-.78l-.81-.51-.16-.11c-.43-.28-.43-.28,0,0l.33.22-.63-.44-.62-.44-.61-.46-.61-.47.78.63c-.49-.37-1-.8-1.42-1.21s-2-2-.23-.18l-1.33-1.31-.57-.59c-1.18-1.23.76.84.23.24-.83-.93-1.64-1.86-2.44-2.82-.58-.69.9,1.15.35.43l-.64-.81c-.42-.55-.84-1.11-1.25-1.67s-.65-.89-1-1.35c-.21-.29-1.63-2.1-.55-.78a29,29,0,0,1-2-3.17c-3.11-5-5.88-10.17-8.64-15.36a19.17,19.17,0,0,0-3.36-4.14,20.31,20.31,0,0,0-4.14-3.36c-.55-.3-1.89-1.22-2.49-.61s.39,2,.62,2.49c5.34,10.06,10.92,19.94,18.26,28.71,7.7,9.19,17.53,17.63,29.13,21.32,9.16,2.91,19.37,3,27.7-2.35,7.2-4.57,11.34-12.2,13.38-20.28a61.72,61.72,0,0,0,.48-25.85,114,114,0,0,0-11.1-32.17,102,102,0,0,0-21.92-28.83c-7.7-7-17.52-13.12-28.19-13.56-8.07-.33-16.82,2.48-22.44,8.45a22,22,0,0,0-5.65,12c-.81,5.78.55,11.65,2.3,17.13.88,2.71,1.9,5.38,2.94,8a14.32,14.32,0,0,0,2.56,3.78,25.06,25.06,0,0,0,4.22,3.95c.9.64,4.9,3.08,3.72.09Z" transform="translate(-97.27 -866.56)"/><path class="cls-1" d="M1109.73,1089.07c1.43.6,2.84,1.24,4.21,1.94-1-.53.12.07.27.15l1,.56c.78.44,1.55.9,2.32,1.37a12.79,12.79,0,0,0,1.94,1.25l-.64-.44.63.44.94.67c.62.46,1.24.92,1.85,1.39.37.29,1.42,1.23-.2-.17.39.34.8.66,1.19,1q.88.75,1.74,1.53c.41.37,1.44,1.42-.32-.31l.84.8c.47.45.92.9,1.37,1.37.28.27.54.55.81.83.93,1-1.4-1.54,0,0,.52.57,1,1.16,1.54,1.75.37.43,2,2.59.61.69,1,1.35,2.08,2.66,3.06,4l.68,1,.22.32c.36.53.29.42-.21-.32.47.25,1,1.51,1.28,2q1.35,2.14,2.6,4.35c.32.56.63,1.13.94,1.7.18.34.37.68.55,1,.06.11.64,1.26.18.34.88,1.78,1.73,3.57,2.53,5.39a144.13,144.13,0,0,1,7.28,21.2c2.15,8.16,3.68,16.48,5,24.81a8.07,8.07,0,0,0,1.65,3.23,25.06,25.06,0,0,0,4,4.22,13.22,13.22,0,0,0,3.78,2.56c.47.17,1.72.5,1.56-.49-2.6-16-6-32.12-12.48-47.08a111.2,111.2,0,0,0-28.39-39.34,81,81,0,0,0-22.11-14.16c-.64-.27-1.48-.4-1.56.49s1.17,2.6,1.65,3.23c2,2.59,4.65,5.49,7.73,6.78Z" transform="translate(-97.27 -866.56)"/><path class="cls-1" d="M1168.55,1073.53c.14.1,1.15.76.48.31-.91-.62,1.16,1,.54.43s1.39,1.33.77.71,1.29,1.44.72.77,1.14,1.56.44.56a4.74,4.74,0,0,0-.37-.51c.11.13.74,1.2.36.5-.1-.18-.21-.36-.32-.54-.45-.74.27.67.06.13-.08-.2-.18-.38-.26-.57-.17-.39-.32-.78-.46-1.18s-.3-.9-.43-1.36c.09.34,0,.15,0-.08s-.11-.53-.16-.79a24.49,24.49,0,0,1,.71-11.25l-.17.54c3.92-12.78,17-19.89,27.88-26a56.88,56.88,0,0,1,11.58-5.3l-.54.16a24.89,24.89,0,0,1,11.18-.74l1.13.22c.65.14.24.06.1,0l.62.18a23.28,23.28,0,0,1,2.3.82c.35.14.7.29,1,.45a2.49,2.49,0,0,1,.59.28s-.83-.47-.37-.19c.7.43,1.43.82,2.13,1.25.85.52-1.12-.79,0,0,.31.22.63.45.94.69a4.25,4.25,0,0,1,.53.42s-1.44-1.2-.61-.49l1,.89c.91.8-1.51-1.46-.32-.3.29.28.57.57.85.86s.32.35.49.5-1.3-1.42-.77-.81l.94,1c.27.32.52.64.8,1-1.51-1.74-.35-.41,0,0,.55.71,1.08,1.44,1.6,2.17.24.35.46.72.72,1-.06-.09-.8-1.22-.26-.38l.3.46c.5.76,1,1.54,1.45,2.32.94,1.56,1.82,3.15,2.67,4.76a5.54,5.54,0,0,1,.33.64l-.15-.3.56,1.13c.42.85.82,1.7,1.22,2.56q2.7,5.91,5.07,12a121.27,121.27,0,0,1,7.43,26c1.43,9.43,1.4,19.31-1.35,28.51l.17-.54c-4.31,14.06-14.94,27.13-29.37,31.48l.54-.16a32.53,32.53,0,0,1-16.65.44,36.6,36.6,0,0,1-3.57-1.14c-.72-.27-1.44-.57-2.15-.88l-.7-.33c-.19-.09-1.68-.86-.64-.3-1.26-.68-2.49-1.4-3.7-2.17s1.11.79,0,0l-1-.69c-.64-.46-1.24-1-1.89-1.44,1.7,1.16.56.45.18.13l-.9-.78-.89-.79c-1.14-1,1.38,1.34.3.27-.48-.46-1-.92-1.42-1.4-.28-.28-.54-.58-.83-.85,1.84,1.78.41.43,0,0s-.88-1-1.31-1.49l-.76-.91c-.94-1.11,1,1.33.14.18-1-1.34-2.07-2.69-3-4.08l-.74-1.06c-.81-1.17.52.81,0,0s-.86-1.31-1.28-2q-1.36-2.17-2.61-4.42c-.42-.75-.82-1.51-1.22-2.26-.66-1.26.4.84-.22-.43-.12-.26-.25-.51-.38-.77q-1.12-2.31-2.13-4.68a91.73,91.73,0,0,1-6.14-21.32,8.21,8.21,0,0,0-1.65-3.23,26.32,26.32,0,0,0-4-4.22,13.42,13.42,0,0,0-3.78-2.56c-.47-.16-1.72-.5-1.56.49a101.64,101.64,0,0,0,14,37.41c7.74,12.44,18.1,24.32,30.94,31.66a41.81,41.81,0,0,0,17.85,5.78,33.91,33.91,0,0,0,15.54-2.84c9.81-4.22,17.55-12.58,22.28-22,12.25-24.46,2.51-53.31-8.07-76.5-5.38-11.79-12.65-23.08-22.73-31.4-4.93-4.07-10.38-7.52-16.74-8.76-6-1.19-12,.32-17.52,2.84a133.57,133.57,0,0,0-16.43,9.3c-5,3.21-9.75,6.9-13.35,11.64a26.87,26.87,0,0,0-5.55,14.78,24.74,24.74,0,0,0,5,16,41.45,41.45,0,0,0,10.5,9.92c.34.22,1.94,1.16,2.49.61s-.4-2.14-.61-2.49a25.18,25.18,0,0,0-7.5-7.5Z" transform="translate(-97.27 -866.56)"/><path class="cls-1" d="M1194.88,1032.14a37,37,0,0,1,5.25.73l.68.16.25.06.41.11.5.14c.88.26,1.76.56,2.62.88s1.5.6,2.23.93c.37.16.73.33,1.09.51.15.07.82.42.23.1s.32.18.36.21c.71.38,1.41.79,2.1,1.21l1,.66c.65.41-1-.73-.42-.28l.72.5c.65.47,1.34.94,1.95,1.48.09.09-1.29-1.06-.73-.57l.54.45,1.06.93c1.25,1.13-1.17-1.13-.29-.27l1,1c.23.24,1.32,1.39.31.3s.14.17.4.46.56.63.83,1,1.42,1.81,0,0c.55.71,1.11,1.42,1.65,2.16l.75,1c.15.22.94,1.36.39.56s.24.39.37.59c.3.46.59.92.88,1.39q.66,1.11,1.29,2.22c.21.38.42.75.62,1.13l.35.65c.43.8-.23-.48,0,0,.79,1.59,1.54,3.2,2.23,4.84a73.09,73.09,0,0,1,3.51,10.4,101.26,101.26,0,0,1,3.09,25.82,105.17,105.17,0,0,1-4.47,29.64l.16-.54a102.39,102.39,0,0,1-3.46,9.64,2.93,2.93,0,0,0,.62,2.49,20.65,20.65,0,0,0,3.36,4.14c.42.41,6,5.43,6.63,4a105.56,105.56,0,0,0,6.3-59.76,88.35,88.35,0,0,0-9.15-26A82.23,82.23,0,0,0,1213,1033.7c-7.94-6.64-17.17-11.74-27.66-12.5-2.29-.16,1.77,5,2.07,5.34a26.38,26.38,0,0,0,4.23,4,7,7,0,0,0,3.22,1.65Z" transform="translate(-97.27 -866.56)"/><path class="cls-1" d="M1008.91,1013.62c.21.3.72,1.22.28.37-.12-.25-.49-.52-.08-.12s0,0-.09-.27-.15-.37-.21-.55-.16-.47-.23-.71c-.14-.49.1.75,0-.14-.06-.43-.14-.86-.18-1.3a15,15,0,0,1,.58-5.41l-.16.54a20,20,0,0,1,13-13.1l-.54.16c5.73-1.64,11.66-.55,16.86,1.85l.93.44c-1-.48.25.13.37.2.6.33,1.2.68,1.79,1l1.06.67c1.22.77-1.07-.78.1.07.67.49,1.35,1,2,1.49,1.22.91-1.25-1.07-.09-.08l.79.67c.49.42,2.38,2.34.55.45.47.49,1,1,1.47,1.44l.86.88c.55.58.38.39-.52-.56l.56.6c.46.51.92,1,1.37,1.54l.79.94c.12.15,1,1.22.22.26s.09.11.2.26c.26.32.51.65.76,1,.5.65,1,1.31,1.46,2,.24.34.47.68.71,1,.82,1.18-.73-1.12,0,.09.37.57.75,1.15,1.11,1.73.87,1.39,1.7,2.82,2.48,4.26.16.3.33.61.48.91s.53,1,.1.18c.37.74.73,1.48,1.08,2.23.63,1.36,1.23,2.75,1.79,4.15a81.2,81.2,0,0,1,3,9c1.49,5.67,2.68,12.36,1,18.31l.16-.54a12.24,12.24,0,0,1-8.07,8.48l.54-.16a20.81,20.81,0,0,1-11.73-.55,45.7,45.7,0,0,1-5.55-2.19l-1.34-.64c-.62-.3.72.38.11,0l-.65-.35c-.92-.5-1.83-1-2.72-1.57l-1.1-.7c-1.23-.81,1,.68-.25-.17-.86-.6-1.7-1.23-2.53-1.88-.36-.28-.9-.85.54.44l-.57-.47-1-.85c-.22-.19-1.62-1.48-.5-.44s-.35-.35-.61-.6a10.34,10.34,0,0,0-1-1.06s1.39,1.52.6.64l-.5-.55c-.29-.32-.57-.65-.85-1l-.48-.56c-.55-.65,1,1.32.32.39-.61-.78-1.21-1.57-1.78-2.37-.14-.2-.28-.41-.43-.61-.35-.5,0-.47.25.36a7.24,7.24,0,0,0-.9-1.4c-.59-1-1.14-1.91-1.67-2.88l-.26-.49c-.59-1.11.43.9-.11-.23q-.37-.75-.72-1.5a56.13,56.13,0,0,1-2.43-6.4,12.38,12.38,0,0,0-2.56-3.78,25.53,25.53,0,0,0-4.22-4c-1-.74-4.64-3.08-3.71-.08,5,16.17,17.38,30.11,31.49,39.11,6.15,3.92,13.62,7.5,21,7.81a14.72,14.72,0,0,0,10.09-3,14.37,14.37,0,0,0,4.46-8.45c1.38-7.14-.69-14.9-2.82-21.68a85.48,85.48,0,0,0-10.38-21.62A97.71,97.71,0,0,0,1043.5,993c-6.86-5.59-14.9-10.73-24-11.5a20.26,20.26,0,0,0-17.38,6.79c-3.95,4.58-5.86,10.8-4,16.67a22.26,22.26,0,0,0,3.06,5.6,23.6,23.6,0,0,0,4,4.22,13.35,13.35,0,0,0,3.78,2.56c3,1.09.47-2.9-.09-3.71Z" transform="translate(-97.27 -866.56)"/><path class="cls-1" d="M1025.71,981.45c1.81.21,3.61.48,5.4.83.87.16,1.73.35,2.59.54l1.19.29c.57.14-.39-.1.17,0l.85.22a77,77,0,0,1,10.24,3.65c.81.36,1.6.72,2.4,1.1l1.1.54c.21.1.82.39-.16-.09.27.13.52.27.78.41,1.61.85,3.18,1.75,4.73,2.71.7.43,1.39.87,2.08,1.32.19.13.38.27.58.39-1.34-.8-.71-.49-.4-.27l1.15.81c.72.51,1.42,1,2.12,1.57.38.28.75.57,1.12.86.14.11.27.23.41.33-1.77-1.37-.67-.54-.3-.24.63.52,1.26,1.06,1.88,1.6l1,.94.39.36c.94.85-.33-.29-.55-.52.61.63,1.28,1.22,1.9,1.84l.87.88.49.51c1,1-1.09-1.17-.52-.55a48.35,48.35,0,0,1,3.59,4.12s-1.14-1.43-.46-.57l.43.55.76,1c.57.75,1.13,1.51,1.67,2.28.24.33.47.67.71,1,.57.82-.22-.33-.27-.41.12.2.26.4.39.59.52.79,1,1.58,1.51,2.38,1,1.55,1.86,3.14,2.7,4.75,0,0,.24.47.25.46s-.42-.83-.08-.15c.21.42.42.84.62,1.26.41.84.8,1.7,1.18,2.55.7,1.61,1.36,3.24,2,4.89a67.1,67.1,0,0,1,3.12,11.32,73.19,73.19,0,0,1,1.22,12.26c0,1.06,1.09,2.47,1.65,3.23a26.32,26.32,0,0,0,4,4.22c.52.43,5.37,4.23,5.34,2.07-.26-16.21-6-31.79-15.07-45.13A107.45,107.45,0,0,0,1041.51,978a77.71,77.71,0,0,0-25.33-7.5c-2.27-.27,1.81,5,2.08,5.33a25.06,25.06,0,0,0,4.22,3.95,7.38,7.38,0,0,0,3.23,1.65Z" transform="translate(-97.27 -866.56)"/><path class="cls-1" d="M1078.59,960.11c.05,0,1.1,1.41.56.67.08.11.79,1.21.37.52s.26.72.09.18c-.06-.19-.16-.37-.23-.55s-.12-.36-.19-.55c-.17-.47.1.5,0,0s-.16-.86-.21-1.3a13.46,13.46,0,0,1,.57-5l-.16.55a17.26,17.26,0,0,1,11.51-11.31l-.54.16c8.16-2.35,16.7-.23,24.71,1.74a120.19,120.19,0,0,1,19.86,6.32c.8.35,1.58.73,2.36,1.11.09,0,.65.32.11,0s.14.07.28.15l1.13.61c.74.42,1.48.86,2.2,1.32.23.15,1.38.9.58.37s.52.38.7.52a6.66,6.66,0,0,1,1,.77s-1.21-1-.7-.56l.42.35c.32.27.63.56,1,.84.6.52-.88-.86-.79-.74a5.52,5.52,0,0,0,.64.64c1.1,1.11-1.07-1.22-.23-.27l.83,1c.46.53-.61-.7-.55-.69s.29.38.34.44l.44.6c.1.14.63.9.15.2s.36.58.48.78c.25.42.49.84.72,1.27l.3.56c-.09-.17-.38-.81,0,0q.36.76.69,1.53a40.53,40.53,0,0,1,1.91,5.56,61.86,61.86,0,0,1,1.71,11.3,63.42,63.42,0,0,1-2.23,22.27l.16-.54c-3,9.83-9.23,18.7-19.41,21.86l.54-.16a31.65,31.65,0,0,1-18.47-.6c-1.45-.47-2.87-1-4.26-1.61-.77-.33-1.52-.68-2.27-1-.12-.06-1.35-.7-.39-.19-.5-.26-1-.53-1.47-.8-1.33-.74-2.61-1.54-3.9-2.36s1.09.78-.08,0l-1-.69c-.64-.46-1.28-.92-1.91-1.39l-1.86-1.45c-1.15-.9,1.3,1.08.18.15l-.9-.76-1.63-1.42c-.25-.21-.49-.43-.73-.65-1.51-1.38,1,1,0,0s-2.16-2.1-3.2-3.19c-.39-.41-1.08-1.27.42.45-.25-.29-.53-.57-.79-.87-.62-.68-1.22-1.37-1.81-2.07l-.76-.9c-.94-1.12,1,1.33.14.18l-1.21-1.55c-.47-.62-.94-1.25-1.4-1.89a11.56,11.56,0,0,1-1.58-2.25c.4,1,.47.72.2.3l-.64-1c-.42-.66-.84-1.33-1.25-2-.82-1.34-1.6-2.71-2.35-4.09l-.55-1c-.25-.48-.24-.46,0,.05-.12-.23-.24-.47-.35-.7-.41-.82-.81-1.65-1.19-2.48-.71-1.55-1.38-3.11-2-4.7a89,89,0,0,1-3.29-10.07,12.15,12.15,0,0,0-2.56-3.78,25.53,25.53,0,0,0-4.22-4c-.85-.6-2.14-1.72-3.23-1.64s-.66.9-.49,1.56c5.51,20.91,18.65,39.63,35.14,53.43,8.71,7.28,18.51,13.72,29.74,16.22,9.13,2,18.94.3,25.92-6.2,6.13-5.71,9.34-13.93,10.88-22a66.41,66.41,0,0,0-.69-27.82,47.34,47.34,0,0,0-7.29-16.26,59.15,59.15,0,0,0-13.86-13.89c-8.19-5.9-17.59-9.33-27.27-11.9-10.14-2.69-21.47-6.33-31.84-2.89-7.73,2.56-13.37,11.15-11.1,19.26.82,2.92,2.73,5.43,4.65,7.71a25.5,25.5,0,0,0,4.22,3.95c.65.48,2.25,1.71,3.23,1.64,2.27-.16-1.84-5-2.08-5.33Z" transform="translate(-97.27 -866.56)"/><path class="cls-1" d="M1108,947.93c1.17.13,2.34.28,3.5.49.57.1,1.15.21,1.72.33l.69.15c.12,0,1.32.32.86.2a51.87,51.87,0,0,1,6.65,2.22c1.08.44,2.15.92,3.2,1.43.08,0,.63.32.63.31l-.47-.24.63.32,1.54.85c1,.59,2,1.21,3,1.84s-.93-.65-.25-.18l.72.51c.57.4,1.14.82,1.7,1.25.28.21,1.71,1.35.69.52s.38.34.65.57c.45.38.88.78,1.32,1.17,1.06,1-1.44-1.39-.43-.4l.76.74c.42.42.82.85,1.23,1.26-1.93-1.92-.36-.39.07.11s.78.88,1.15,1.33l.45.55c-1.4-1.68-.57-.71-.25-.3.72.93,1.38,1.9,2.07,2.85-1.14-1.58.08.14.3.48.38.6.74,1.2,1.1,1.81.27.45.53.91.78,1.37s.91,1.6.34.62a31,31,0,0,1,1.62,3.51c.5,1.18.95,2.39,1.37,3.6q.33,1,.63,2c.09.28.17.56.25.84,0,.12.3,1.16.18.68a52.6,52.6,0,0,1,1.3,8,7.47,7.47,0,0,0,1.64,3.23,26.32,26.32,0,0,0,4,4.22,13.57,13.57,0,0,0,3.78,2.56c.52.18,1.64.49,1.56-.49-1-11.41-5.7-22.1-12.48-31.23-7.86-10.57-18.29-19.67-30.29-25.21a55.86,55.86,0,0,0-17.37-4.8c-2.28-.24,1.8,5,2.07,5.33a26.35,26.35,0,0,0,4.22,4,7.41,7.41,0,0,0,3.23,1.64Z" transform="translate(-97.27 -866.56)"/><path class="cls-1" d="M980.72,891.52c-3.52-4.37-9.14-10.49-15.51-9-3.84.9-6.34,3.54-7.73,7.18-1.57,4.11-2,8.63-2.41,13q-.68,6.78-.74,13.61A159.4,159.4,0,0,0,976.74,999a21.54,21.54,0,0,0,7.5,7.5c.55.3,1.89,1.21,2.49.61s-.37-2.07-.61-2.49q-1.33-2.24-2.58-4.51c-.42-.76-.83-1.52-1.23-2.29l-.6-1.15-.42-.83q-2.35-4.76-4.39-9.65a152.22,152.22,0,0,1-11.62-61.89q.12-5.85.68-11.67a64.31,64.31,0,0,1,1.79-11.39l-.16.54c1.14-3.71,3.22-7.07,7.07-8.32l-.54.16a9.07,9.07,0,0,1,3.11-.38l.6.06c.85.05-.26-.12.18,0a3.69,3.69,0,0,0,.69.26l-.57-.29a19,19,0,0,1-5.06-4.82,32.24,32.24,0,0,0,4,4.22,13.42,13.42,0,0,0,3.78,2.56c3,1.06.57-2.89-.09-3.72Z" transform="translate(-97.27 -866.56)"/><path class="cls-1" d="M971.12,981.71c.46,16.32,11.07,30.92,23.76,40.4a49.73,49.73,0,0,0,11.58,6.54c.65.25,1.49.41,1.56-.49s-1.17-2.6-1.65-3.23a26.32,26.32,0,0,0-4-4.22,13.86,13.86,0,0,0-3.78-2.56c-.9-.35-1.8-.73-2.68-1.15l-.65-.33c.56.29.6.31.13.06l-1.27-.71-.93-.57-.62-.39c-.53-.35-.4-.27.38.26a7.78,7.78,0,0,0-1.19-.85c-.42-.33-1.73-1.52,0,0-.5-.46-2.75-2.59-.73-.57-.34-.34-.7-.67-1-1-1.39-1.4,1,1.13.11.14-.33-.37-.65-.73-1-1.1s-1-1.44.2.27a20.89,20.89,0,0,0-1.73-2.35c1.17,1.29.13.17-.13-.25s-.51-.83-.75-1.25-.36-.63-.53-1l-.35-.64c.29.56.31.6.07.12a48.2,48.2,0,0,1-2.07-5,28.3,28.3,0,0,1-1.23-4.79,40.15,40.15,0,0,1-.59-5.79c0-1.08-1.07-2.46-1.64-3.23a25.5,25.5,0,0,0-3.95-4.22c-.51-.43-5.4-4.23-5.34-2.08Z" transform="translate(-97.27 -866.56)"/><path class="cls-1" d="M1052,1070.29q3,5.25,5.89,10.6l1.41,2.68.65,1.25c.1.2.72,1.41.39.77q1.38,2.7,2.7,5.43,5.37,11,9.93,22.38c1.71,4.25,3.33,8.55,4.86,12.87a13.53,13.53,0,0,0,2.57,3.78,25.11,25.11,0,0,0,4.22,4c1,.68,4.78,3.08,3.71.09a353.93,353.93,0,0,0-20.19-45.92q-3.27-6.2-6.77-12.25a20.93,20.93,0,0,0-3.36-4.14,20,20,0,0,0-4.14-3.36c-.55-.31-1.89-1.22-2.49-.62s.37,2.07.62,2.49Z" transform="translate(-97.27 -866.56)"/><path class="cls-1" d="M1133.67,1193.69a117.55,117.55,0,0,1,9,39.23,7.27,7.27,0,0,0,1.65,3.23,25.45,25.45,0,0,0,4,4.22c.48.4,5.46,4.21,5.34,2.07a123.61,123.61,0,0,0-9.49-40.93c-1.29-3.06-4.13-5.84-6.78-7.74-.85-.6-2.14-1.72-3.23-1.64-.88.06-.76.91-.49,1.56Z" transform="translate(-97.27 -866.56)"/><path class="cls-1" d="M1194.12,1336.76s.58.23.57.24-.91-.5-.29-.12a15.92,15.92,0,0,1-3.71-3.28s-1.19-1.53-.58-.7c0,0-.88-1.32-.38-.52.38.62-.2-.26-.13-.29a6.85,6.85,0,0,1,.31.71c.14.34.27.69.39,1,0,.11.36,1.3.22.72a25.64,25.64,0,0,1,.49,2.78c.57,4.58.38,9.29.46,13.9l.57,32.36.33,18.43c0,1.06,1.08,2.47,1.64,3.23a25.53,25.53,0,0,0,4,4.22c.51.43,5.37,4.23,5.33,2.07l-.63-35.85-.32-17.93c-.09-4.65.14-9.45-1-14a22.21,22.21,0,0,0-3.8-8c-2.81-3.83-6.79-7.68-11.27-9.46-.65-.25-1.49-.41-1.56.49s1.17,2.6,1.65,3.23c1.93,2.55,4.65,5.56,7.73,6.78Z" transform="translate(-97.27 -866.56)"/><path class="cls-1" d="M1191.07,1383a392.17,392.17,0,0,1-5.43,123.6q-3.5,17.06-8.51,33.75l.16-.54c-.5,1.65-1,3.3-1.52,5a3,3,0,0,0,.61,2.49,20.63,20.63,0,0,0,3.37,4.14,20.19,20.19,0,0,0,4.13,3.36c.33.18,2.28,1.31,2.5.61a392.52,392.52,0,0,0,18.11-126.7q-.4-18.12-2.48-36.14a7.59,7.59,0,0,0-1.65-3.23,25.06,25.06,0,0,0-3.95-4.22,13.22,13.22,0,0,0-3.78-2.56c-.5-.18-1.67-.5-1.56.49Z" transform="translate(-97.27 -866.56)"/><path class="cls-1" d="M1190.25,1507.75q-4.41,31.85-9.87,63.51t-12,62.9q-3.67,17.71-7.69,35.37c-.19.84,1.28,2.74,1.64,3.23a25.53,25.53,0,0,0,4,4.22c.77.65,4.84,4.23,5.33,2.07q7.13-31.33,13.19-62.9t11-63.07q2.82-17.86,5.3-35.8c.12-.92-1.22-2.65-1.65-3.23a24.68,24.68,0,0,0-4-4.22c-.67-.57-5-4.26-5.34-2.08Z" transform="translate(-97.27 -866.56)"/><path class="cls-1" d="M107.5,2056.38c43.19-6,74.2-41.69,91.44-79.41,20-43.69,24.72-92.47,27.58-139.85,3.19-52.67,3.31-105.57-4.48-157.86-7.2-48.24-19.87-95.47-33.27-142.3-26.59-92.94-57.61-187.52-53.29-285.45,4-90.6,40.48-178.91,101.31-246.16,61-67.44,146.16-112,236.14-124.68,10.83-1.53,21.72-2.56,32.65-3.17,2.3-.13-1.66-4.86-2.07-5.34-1.43-1.67-4.86-5.74-7.45-5.6C406.14,871.62,318.54,908.17,252,968.87c-66.14,60.29-110.06,143.88-123.45,232.27-14.46,95.48,10.13,190.43,36.38,281.61,13.63,47.38,28,94.65,38.2,142.92a679.47,679.47,0,0,1,14.49,153.65c-.89,49.33-3,100.48-15.61,148.4-11.22,42.54-34,87-74.46,108.24A89.71,89.71,0,0,1,98,2045.45c-2.26.31,1.58,4.75,2.08,5.33,1.29,1.52,5,5.94,7.45,5.6Z" transform="translate(-97.27 -866.56)"/><path class="cls-1" d="M360.14,898.39c-35.29,10.48-63.95,35.57-88.06,62.51a369.14,369.14,0,0,0-55.67,82.78,397.95,397.95,0,0,0-40.33,194A371,371,0,0,0,194.3,1336q1.9,5.74,4,11.43c1.14,3.07,4.22,5.84,6.78,7.73.94.69,4.82,3.07,3.72.09a360.78,360.78,0,0,1-21.06-96.63,394.85,394.85,0,0,1,34.09-193.43,372.42,372.42,0,0,1,52.51-84c22.57-27.13,49.57-53.41,82.54-67.27a125.43,125.43,0,0,1,12.78-4.59c2.14-.63-1.39-4.56-2.08-5.33a27.31,27.31,0,0,0-4.22-4c-.69-.51-2.33-1.91-3.23-1.64Z" transform="translate(-97.27 -866.56)"/><path class="cls-1" d="M191.12,1344.85c25,41.58,48.19,84.26,68.14,128.5s36.79,90.17,48.44,137.38c11.05,44.79,17.49,90.72,17.75,136.89.26,44.52-5,89.19-16.71,132.18-11.58,42.57-29.66,83.5-54.51,120q-4.62,6.8-9.54,13.37c-1.93,2.59,9.3,12.35,10.61,10.6,26.68-35.73,46.55-76.16,59.78-118.7,13.27-42.7,20.06-87.27,21.16-131.94,1.13-46.12-4-92.16-13.93-137.17-10.54-47.65-26.28-94-45.53-138.85-19.39-45.16-42.26-88.78-67.09-131.16q-4.55-7.77-9.19-15.49a21.8,21.8,0,0,0-7.5-7.5c-2.22-1.23-3.36-.59-1.88,1.88Z" transform="translate(-97.27 -866.56)"/><path class="cls-1" d="M232.62,1171.66c-6.64,12.37-10.12,26.17-11.33,40.11-1.24,14.31-.26,28.74,1.47,43,1,8,2.23,16,3.51,24a8,8,0,0,0,1.65,3.23,25.06,25.06,0,0,0,4,4.22,13.22,13.22,0,0,0,3.78,2.56c.47.17,1.72.5,1.56-.49-3.75-23.3-7.34-47.16-4.6-70.78a110.76,110.76,0,0,1,3.9-19.18l-.16.54a91,91,0,0,1,6.88-16.62c.42-.78-.25-1.86-.61-2.49a20.36,20.36,0,0,0-3.37-4.14c-.49-.48-5.83-5.46-6.63-4Z" transform="translate(-97.27 -866.56)"/><path class="cls-1" d="M233.81,1161.77c-9.52-.21-18.82,3.59-26.09,9.6-7.75,6.41-13,15.25-16.08,24.75-6.38,19.72-4.83,41.69,1.61,61.18a114.83,114.83,0,0,0,17,32.33,26.77,26.77,0,0,0,4,4.22,13.49,13.49,0,0,0,3.78,2.56c3,1.08.52-2.89-.09-3.71l-1.25-1.71-.73-1c0-.08-.85-1.22-.29-.41s-.22-.34-.27-.42l-.58-.88q-.69-1.07-1.35-2.16-1.16-1.89-2.24-3.84c-.34-.62-.68-1.24-1-1.86l-.39-.75c.47.9-.21-.43-.3-.61a106,106,0,0,1-6.6-16.73,103.94,103.94,0,0,1-4.18-34.72,85.07,85.07,0,0,1,3.35-20.16l-.16.54a55.87,55.87,0,0,1,11.79-21.53,43.78,43.78,0,0,1,19.2-12.37l-.54.17a35.68,35.68,0,0,1,11-1.52c2.3,0-1.73-4.94-2.07-5.33a26.35,26.35,0,0,0-4.22-4c-.91-.64-2.07-1.62-3.23-1.64Z" transform="translate(-97.27 -866.56)"/><path class="cls-1" d="M244.92,1179.7a12.19,12.19,0,0,1,3.56-1.8l-.54.17a13.6,13.6,0,0,1,4.44-.49,10.85,10.85,0,0,1,4,.84c.33.12.65.25,1,.39l.48.22c.61.27-.73-.43-.16-.08l.9.54c.57.3-.57-.41-.54-.39.18.15.38.28.57.41.91.65-1.32-1.08-.19-.13.62.52-1-.9-.82-.77s.68.71-.2-.23-.31-.31-.09-.06c.5.56-.53-.66-.5-.62.12.22,1,1.41.5.67s-.08-.11,0,0,.28.45.41.68.4.7.58,1.06c-.42-.82.1.23.23.52s.37.87.55,1.3a43.88,43.88,0,0,1,1.61,5c.82,3.25,1.37,6.83,1.88,10.24a177.32,177.32,0,0,1,1.77,41.42,110.83,110.83,0,0,1-4.17,22.47l.16-.54a76.55,76.55,0,0,1-16.94,30.18c-.54.59.39,2.11.62,2.49a25.77,25.77,0,0,0,7.5,7.5c.53.3,1.92,1.23,2.49.62,13.64-14.64,19.76-34.34,21.34-54a167.37,167.37,0,0,0-.53-30.36c-.51-5-1.19-10-2.05-14.94a54.32,54.32,0,0,0-5.18-16.5,41.06,41.06,0,0,0-8.31-10.56,35,35,0,0,0-9.89-6.78c-4.84-2.1-10.65-2.4-15.06.85-.62.45.48,2.26.62,2.49a20.59,20.59,0,0,0,3.36,4.14,20.31,20.31,0,0,0,4.14,3.36c.63.35,1.77,1.14,2.49.61Z" transform="translate(-97.27 -866.56)"/><path class="cls-1" d="M227.33,1325.07c-3.29,13.48-.6,27.74,5.08,40.2,6.49,14.22,16.64,26.42,27.59,37.43,6,6,12.27,11.69,18.56,17.36.47.43,5.2,4.36,5.33,2.07.06-1.07-1.08-2.48-1.64-3.23a31,31,0,0,0-4-4.22c-2.51-2.26-5-4.53-7.52-6.83-.65-.59-1.29-1.21-1.94-1.8,1.87,1.69-.06-.06-.48-.45-1.28-1.22-2.56-2.44-3.82-3.68s-2.3-2.28-3.43-3.44l-1.52-1.59c-.35-.37-1.42-1.58.15.17l-1.19-1.29q-1.64-1.79-3.21-3.63l-1.41-1.68-.28-.34c-.47-.58-.37-.45.3.38a8.43,8.43,0,0,0-.95-1.21q-1.43-1.82-2.77-3.68c-.51-.72-1-1.42-1.51-2.16.85,1.33,0,0-.11-.19l-.72-1.11c-.84-1.32-1.65-2.67-2.42-4-.42-.75-.82-1.51-1.22-2.27-.08-.14-.41-.82,0,0-.25-.51-.51-1-.75-1.54a68,68,0,0,1-5.85-18,53.74,53.74,0,0,1,.65-21.62c.2-.82-1.3-2.75-1.64-3.23a25.93,25.93,0,0,0-4-4.22c-.79-.67-4.81-4.22-5.33-2.07Z" transform="translate(-97.27 -866.56)"/><path class="cls-1" d="M247.86,1339q3.31,4.13,6.36,8.44c.49.69,1,1.39,1.45,2.09.84,1.2-.73-1.11.09.12l.7,1q1.52,2.3,3,4.63,2.77,4.5,5.28,9.16c.4.75.79,1.5,1.18,2.25a2.63,2.63,0,0,1,.21.41l.57,1.13q1.22,2.46,2.37,5A173.28,173.28,0,0,1,284.71,1436a7.36,7.36,0,0,0,1.64,3.23,25.14,25.14,0,0,0,4,4.22c.48.41,5.46,4.22,5.33,2.08a179.74,179.74,0,0,0-7.82-42.77A183.77,183.77,0,0,0,270,1362.94a186.43,186.43,0,0,0-14.5-20.88,31,31,0,0,0-3.95-4.22,13.35,13.35,0,0,0-3.78-2.56c-3-1.07-.57,2.88.09,3.71Z" transform="translate(-97.27 -866.56)"/><path class="cls-1" d="M336.61,1289.64a92.43,92.43,0,0,0,13.61-44.4c.71-15.65-2.4-32.2-10-46a43.23,43.23,0,0,0-11.87-13.62c-3.41-2.58-7.55-4.58-11.92-4.37-7.32.35-13.6,5.67-18,11.09-5,6.08-8.46,13.53-11.43,20.74a127.25,127.25,0,0,0-7.11,23.62,124.16,124.16,0,0,0-.05,48.4c.41,2,.86,4,1.37,6,.75,3,3.33,5.53,5.6,7.45a13.17,13.17,0,0,0,3.77,2.56c.42.15,1.81.51,1.56-.48a123.78,123.78,0,0,1-1.83-51.69,127.5,127.5,0,0,1,3.43-14.42l-.17.55a122.65,122.65,0,0,1,8.11-20.22c3.12-6.13,6.69-12,11.88-16.64a25.44,25.44,0,0,1,9.4-5.56l-.55.16a15.32,15.32,0,0,1,3.74-.62,13.79,13.79,0,0,1,1.7,0l.69.09c.12,0,1.3.28.85.15.58.16,1.13.4,1.69.61,1.09.42-.53-.36.07,0,.18.11.62.48.8.49l-.67-.44c.58.44.4.29-.52-.44.39.33,1,1-.64-.61,1.05,1-1.3-1.48-.34-.36s-1-1.38-.19-.23c.25.36.74,1.4,0,0,.12.22.28.43.41.64.37.6.7,1.23,1.05,1.84s-.48-1,.05.1l.42.86c.33.71.64,1.42.95,2.14a85.05,85.05,0,0,1,3,8.17,90.39,90.39,0,0,1,3.57,33.76,94.26,94.26,0,0,1-3.62,19.27l.17-.54A89.12,89.12,0,0,1,326,1279c-.45.73.29,1.93.62,2.49a20.65,20.65,0,0,0,3.36,4.14,20.19,20.19,0,0,0,4.14,3.36c.44.25,2.07,1.29,2.49.62Z" transform="translate(-97.27 -866.56)"/><path class="cls-1" d="M315.57,1300.92a8.3,8.3,0,0,1-5.26,4.42l.55-.16a12.68,12.68,0,0,1-5.09.34l-.73-.12c-.09,0-.7-.15-.29-.05s-.44-.13-.43-.13l-.55-.19c-.22-.08-.9-.52-1.09-.45.25-.09.88.5.31.16-.24-.15-.49-.32-.75-.46l.8.54q-.59-.45.24.21c1.56,1.25-.87-.86.78.67.19.18,2,2.26,1.17,1.17,0,.05,1.1,1.4.42.51-.28-.39-.26-.75.23.35a6.82,6.82,0,0,0-.39-.64c-.13-.22-.25-.44-.37-.66.54,1,0,0-.08-.26a21.48,21.48,0,0,1-1.66-6.16,78,78,0,0,1-.26-14.82,141.4,141.4,0,0,1,1.73-15.76,144.5,144.5,0,0,1,4.11-17.57l-.16.54a142,142,0,0,1,14.75-32.88c.45-.73-.29-1.91-.62-2.49a20.93,20.93,0,0,0-3.36-4.14c-.54-.52-5.72-5.45-6.63-4A143.19,143.19,0,0,0,294,1259.48a126.17,126.17,0,0,0-1.93,26.53,35.64,35.64,0,0,0,2.33,12,34.91,34.91,0,0,0,11.95,14.62c3.44,2.43,7.53,4.27,11.84,3.89,3.33-.29,6.54-1.86,8-5,.38-.83-.22-1.8-.62-2.49a20.65,20.65,0,0,0-3.36-4.14c-.45-.44-5.95-5.45-6.63-4Z" transform="translate(-97.27 -866.56)"/><path class="cls-1" d="M405.5,1114.92c2.14-5.45,4.26-11,5.09-16.84a27,27,0,0,0-2.72-16.57,43.5,43.5,0,0,0-12.75-14.27,36.81,36.81,0,0,0-13.51-6.36c-8.86-2.12-17.92,0-25.58,4.75-8.4,5.2-14.88,13.06-20,21.38a110.33,110.33,0,0,0-12.95,30.51c-2.33,9-3.5,18.28-2.3,27.54a46.72,46.72,0,0,0,11.84,25.87c4.44,4.85,9.63,9.21,15.74,11.79a31.69,31.69,0,0,0,14.14,2.32c9.82-.61,19.15-5.13,26.35-11.7,7.79-7.11,13.41-16.19,18.45-25.35,1.25-2.26,2.46-4.54,3.68-6.83.41-.78-.25-1.85-.62-2.49a20.59,20.59,0,0,0-3.36-4.14c-.49-.47-5.84-5.45-6.63-4-7.21,13.56-15,28.29-28.2,36.93a44.42,44.42,0,0,1-11.33,5.26l.54-.16a33.93,33.93,0,0,1-17.46.79c.53.13-.64-.18-.58-.16l-.88-.28q-1-.33-1.92-.72l-1-.46c-1.15-.5.85.5-.25-.12-.59-.34-1.18-.79-1.8-1.08,1.45.69.63.43.19.12-.26-.2-.51-.41-.78-.6,2,1.37.39.28-.09-.12,1.94,1.6,1,.91.52.47s-1.18-1.42.47.53c-.21-.25-.43-.49-.64-.73-.83-.93,1,1.34.32.41-.32-.43-1.45-2.31-.45-.55-.32-.56-.7-1.09-1-1.65-.18-.31-1.1-1.76-.37-.61a14.5,14.5,0,0,1-1-2.08c-.48-1.12-.9-2.26-1.27-3.41a29.61,29.61,0,0,1-.92-3.38,58.73,58.73,0,0,1-1.13-15.82,87.81,87.81,0,0,1,3.86-20.36l-.16.55a109.23,109.23,0,0,1,11.83-26.09c4.44-7.12,9.84-13.81,16.61-18.84a40.88,40.88,0,0,1,12.39-6.35l-.54.16a30,30,0,0,1,10.1-1.22,31,31,0,0,1,5.08.67l.65.15c-.07,0-.43-.11-.06,0s.74.2,1.11.32c.84.26,1.66.55,2.47.88l1.2.52a2.61,2.61,0,0,1,.58.28s-.84-.46-.37-.19.66.36,1,.55,1.6,1,.72.42.21.15.4.3.46.28.51.39-1.46-1.25-.66-.53l.36.31c.69.55-1.37-1.35-.76-.72l.34.34c1,.9-1.34-1.55-.5-.54l.31.36c.57.59-1-1.34-.53-.67a8.11,8.11,0,0,0,.65.89s-.82-1.3-.34-.49l.33.54.24.42c.45.79.16,0-.05-.11.36.14.8,1.88.92,2.24a17.5,17.5,0,0,1,.69,2.79c.84,5.25-.17,10.57-1.68,15.61l.17-.54c-.95,3.1-2.1,6.12-3.29,9.14a2.94,2.94,0,0,0,.62,2.49,20.59,20.59,0,0,0,3.36,4.14c.41.4,6.06,5.42,6.63,4Z" transform="translate(-97.27 -866.56)"/><path class="cls-1" d="M386.88,1074.59c-12.27,5.13-22.5,14.14-30.3,24.81-8.76,12-14.28,25.93-18.09,40.2-2.29,8.59-3.95,17.33-5.37,26.1-.14.9,1.24,2.68,1.65,3.23a25.06,25.06,0,0,0,4,4.22c.69.59,5,4.25,5.33,2.07a245.33,245.33,0,0,1,6.88-31.39l-.16.54c6-19.62,16.06-38.57,32.72-51.12a64.73,64.73,0,0,1,14-8c.68-.29-.59-2.45-.62-2.5a20.53,20.53,0,0,0-3.36-4.13,20,20,0,0,0-4.14-3.37c-.76-.42-1.6-1-2.49-.61Z" transform="translate(-97.27 -866.56)"/><path class="cls-1" d="M326,1070.6c8.69-5.83,8.93-18.45,4.86-27.13-3.35-7.13-9-13.3-15-18.29a121.48,121.48,0,0,0-17-11.45c-6-3.46-12.17-7-19.08-8.26a25,25,0,0,0-15.41,2.31c-9.35,4.61-15.74,14-20.47,22.92a169.7,169.7,0,0,0-7.6,17,147.27,147.27,0,0,0-6.43,20c-3,12.75-3.73,26.41.57,39s13.47,24,24.22,31.79c9.3,6.76,20.57,10.58,32,7.6,11.64-3,21.05-11.21,28.25-20.56a97.28,97.28,0,0,0,16.84-34.53c.8-3,1.44-6.11,1.94-9.21.15-.9-1.23-2.68-1.64-3.23a25.5,25.5,0,0,0-3.95-4.22c-.7-.59-5-4.26-5.34-2.08a97.27,97.27,0,0,1-2.87,12.51l.16-.54a96.54,96.54,0,0,1-11.77,25.12c-4.82,7.29-10.64,14.1-17.77,19.23a43.5,43.5,0,0,1-12.8,6.43l.55-.16a33.77,33.77,0,0,1-9.68,1.39,30.77,30.77,0,0,1-4.49-.36c-.73-.11-1.47-.25-2.19-.41l-.5-.12c.07,0,.39.11,0,0l-1.16-.33a36.81,36.81,0,0,1-4.17-1.58l-.93-.44c-.5-.24-.13-.3.17.09a1.67,1.67,0,0,0-.46-.24c-.66-.36-1.31-.73-1.95-1.13-.3-.18-.59-.37-.88-.56-.88-.56,1.06.75,0,0-.38-.26-1.4-1.34-1.83-1.36,0,0,1.24,1,.72.58l-.41-.34-.93-.81a4.48,4.48,0,0,0-.4-.36c-.14-.09,1.39,1.32.81.76l-.89-.87-.75-.77c1.8,1.8.68.73.27.28l-.71-.81-.34-.42c-.68-.78.46.55.45.57s-1.3-1.69-1.42-1.86-.42-.6-.63-.89c-.39-.53.38.57.35.54-.12-.21-.26-.41-.39-.61-.86-1.32-1.64-2.68-2.39-4.06l-.05-.1c.29.59,0-.12-.12-.26-.16-.32-.32-.65-.47-1-.33-.71-.64-1.43-.94-2.16a52.55,52.55,0,0,1-3.62-20.05,92.27,92.27,0,0,1,4.28-26.62l-.16.54a173.53,173.53,0,0,1,11.22-28.12c3.64-7.19,8.11-14.25,14.18-19.64a30.12,30.12,0,0,1,11.06-6.43l-.54.16a23.72,23.72,0,0,1,13.86.14,41.44,41.44,0,0,1,3.88,1.5l1.8.84c-.06,0,1.23.62.64.31-.38-.19.86.46,1,.55,2.37,1.27,4.69,2.62,7,4s4.47,2.69,6.66,4.11c.74.48-1.23-.85-.12-.08l.65.46c.54.38,1.08.77,1.61,1.17.26.2,1.85,1.45.87.65s.07.06.22.19l.9.77c.19.17.38.37.58.53-1.84-1.47-.74-.7-.31-.28s.73.75,1.1,1.11c-1.9-1.84-.24-.17.2.3-1.53-1.65.07.12.43.62.64.9.24-.1-.09-.14a4.28,4.28,0,0,1,.42.67,7.77,7.77,0,0,1,.85,1.48c0-.1-.47-1-.13-.22.11.26.23.5.34.76.24.56.46,1.12.65,1.7s.35,1.05.49,1.59c-.17-.64.09.41.1.44.07.32.13.65.19,1a24.53,24.53,0,0,1,.36,3.63,22.38,22.38,0,0,1-.91,7l.16-.54a16.09,16.09,0,0,1-6.35,8.74c-.63.42.51,2.3.62,2.49a20.93,20.93,0,0,0,3.36,4.14,20.52,20.52,0,0,0,4.14,3.36c.65.36,1.74,1.12,2.49.62Z" transform="translate(-97.27 -866.56)"/><path class="cls-1" d="M297.12,1008.28c-16.34,1.17-29.24,12.72-37.1,26.4-9.16,15.94-12.22,35.2-10.83,53.37a106.86,106.86,0,0,0,7.84,32.79c1.27,3.05,4.13,5.84,6.78,7.73.86.61,5,3.07,3.72.09a103.06,103.06,0,0,1-6.75-53.32,97.59,97.59,0,0,1,3.14-14.64l-.16.54c4.2-13.81,12.28-27.36,24.45-35.52a41,41,0,0,1,10.71-5.15l-.54.16a37.92,37.92,0,0,1,8.27-1.52c2.28-.17-1.64-4.84-2.08-5.34a25.9,25.9,0,0,0-4.22-4c-.84-.6-2.13-1.72-3.23-1.64Z" transform="translate(-97.27 -866.56)"/><path class="cls-1" d="M492.22,1004.46c3.8-5.51,2.45-12.17-.64-17.65a42.22,42.22,0,0,0-9.67-11.29c-3.16-2.64-6.7-5.09-10.72-6.2-15.61-4.3-30.22,8.12-39.1,19.55A80.6,80.6,0,0,0,420.67,1009c-2.65,6.82-4.93,14.42-4.94,21.8a23,23,0,0,0,2.58,10.77,31.34,31.34,0,0,0,5.5,7.15,30.66,30.66,0,0,0,8.14,6c6.81,3.37,14.74,1,21.23-1.92a56.46,56.46,0,0,0,28.33-29.26c.67-1.6,1.25-3.23,1.77-4.88a3,3,0,0,0-.62-2.49,20.93,20.93,0,0,0-3.36-4.14,20.52,20.52,0,0,0-4.14-3.36c-.32-.18-2.27-1.31-2.49-.62a56.35,56.35,0,0,1-25.17,31.58,50.71,50.71,0,0,1-10.69,4.77l.54-.16c-3.5,1-7.34,1.67-11,.86.37.08-.61-.18-.74-.23-.4-.14-.79-.31-1.19-.48.55.29.59.3.13,0s-.43-.26.35.24l.83.68c-.59-.51-.36-.29.7.66a17.43,17.43,0,0,1,1.6,1.84c-.37-.5-.28-.35.29.46a4.57,4.57,0,0,0-.52-.86c.3.6.34.66.12.19-.09-.21-.18-.42-.26-.63-.15-.37-.27-.74-.39-1.13-.05-.16-.1-.32-.14-.49.07.29.06.24,0-.16s-.18-.92-.24-1.38a23.25,23.25,0,0,1-.22-2.49,32.92,32.92,0,0,1,.23-5.06,67.93,67.93,0,0,1,2.46-11.26l-.16.54c4.54-15,13.58-29.59,26.29-39a39.73,39.73,0,0,1,12-6.25l-.54.16a25.68,25.68,0,0,1,11.12-.89c.44.06.88.15,1.32.25-.65-.15.23.07.36.11.71.23,1.37.52,2.05.8.47.23.38.18-.25-.14l.56.31a8.3,8.3,0,0,0,.81.49c-.84-.57-1-.69-.49-.33l.51.38c1,.73-1.45-1.22-.3-.23s-1.35-1.31-.41-.38-1.44-1.61-.39-.41-1-1.3-.24-.29l.37.51c-.54-.81-.68-1-.43-.63s.39.62.57.94.21.36.31.54l-.21-.41c.24.67.58,1.31.81,2,.12.33.22.67.32,1-.2-.7,0,.32.08.46a14.29,14.29,0,0,1,.24,2.06,13.19,13.19,0,0,1-.5,4.19l.16-.55a12.59,12.59,0,0,1-1.72,3.51c-.48.7.32,2,.62,2.5a20.87,20.87,0,0,0,3.36,4.13,20.57,20.57,0,0,0,4.14,3.37c.46.25,2,1.27,2.49.61Z" transform="translate(-97.27 -866.56)"/><path class="cls-1" d="M466.3,957.59a79.6,79.6,0,0,0-41.09,17.85,85.49,85.49,0,0,0-25.92,36.3,76.52,76.52,0,0,0-4.79,25.13c0,1,1.12,2.51,1.64,3.23a25.53,25.53,0,0,0,4,4.22c.54.46,5.3,4.25,5.33,2.07a74.78,74.78,0,0,1,3.13-20.09l-.16.54a85.47,85.47,0,0,1,38.84-48.72A78.87,78.87,0,0,1,463.62,971l-.54.16a73.92,73.92,0,0,1,12.74-2.64c2.27-.26-1.58-4.79-2.07-5.33a25.93,25.93,0,0,0-4.22-4c-.82-.58-2.17-1.77-3.23-1.64Z" transform="translate(-97.27 -866.56)"/><path class="cls-1" d="M421.41,952.35c7.33-8.7-2.06-20.54-8.54-26.34a27.62,27.62,0,0,0-15.95-7.33c-5.53-.53-11.09.54-16.45,1.79-17.84,4.17-38.81,9.54-46.32,28.34-3.6,9-4.49,19.28-3.55,28.87a52.67,52.67,0,0,0,9.32,25.83c6.57,9.16,16.62,17.38,28.26,18.2,10.11.71,20.23-3.69,28.43-9.28a91.56,91.56,0,0,0,34.58-45.56c.79-2.28,1.48-4.6,2.1-6.93.21-.81-1.31-2.77-1.65-3.23a25.9,25.9,0,0,0-3.95-4.22,13.22,13.22,0,0,0-3.78-2.56c-.74-.27-1.33-.39-1.56.49s-.55,2-.85,3l.17-.54A92.09,92.09,0,0,1,387,1001.14a58,58,0,0,1-16.19,8.17l.54-.16c-5.4,1.62-11.65,2.33-16.92,1a23.94,23.94,0,0,1-3.73-1.31,3.93,3.93,0,0,1-.9-.43c.84.73.27.14-.08,0-.57-.32-1.11-.7-1.67-1,1.68,1,.12,0-.3-.27,2,1.37.41.29-.08-.12,2.13,1.76.59.51.08,0,1.83,1.77.9,1,.49.5-1.06-1.21.52.71.2.28l-1.06-1.43c-.57-.78.28.41.31.47-.14-.28-.36-.56-.52-.83-.29-.47-.57-.94-.84-1.42a9.25,9.25,0,0,1-.47-.88c.45,1.16.1.19,0-.09a44.75,44.75,0,0,1-2.61-7c-.28-1-.48-1.8-.77-3.18s-.46-2.51-.64-3.78a66.68,66.68,0,0,1-.58-7.61,65.59,65.59,0,0,1,2.44-19.56l-.16.54a36.06,36.06,0,0,1,13.19-18.91c6-4.43,13.13-7.15,20.25-9.3l-.54.17c3.5-1.05,7-2,10.6-2.83a89.63,89.63,0,0,1,12.79-2.45A26.65,26.65,0,0,1,412,930.88c.38.15.75.35,1.13.49s-.44-.18-.39-.21a5,5,0,0,1,.54.32c.89.48-1.11-.83-.09-.07s-1.21-1.07-.16-.13c.6.54-1-1-.87-.81.78.75-.7-.76-.7-.77,0,.18.41.31.43.49s-1-1.38-.63-.78a3.47,3.47,0,0,0,.29.38c.58.74-.29-.42-.32-.49a10.2,10.2,0,0,0,.66,1.09c.37.62-.07-.25-.13-.26s.24.5.27.58c.17.38.32.76.46,1.16,0,.15.37,1.25.22.62.09.39.17.79.23,1.19a11.86,11.86,0,0,1-.29,5l.16-.54a10.14,10.14,0,0,1-2,3.64c-.53.63.36,2.06.62,2.5a20.53,20.53,0,0,0,3.36,4.13,20,20,0,0,0,4.14,3.37c.5.28,1.95,1.24,2.49.61Z" transform="translate(-97.27 -866.56)"/><path class="cls-1" d="M384.05,924.07c-20.31,2.16-38.39,16.22-46.38,34.88a54.81,54.81,0,0,0-4.24,16.84c-.08,1,1.17,2.59,1.64,3.23a25.53,25.53,0,0,0,4,4.22c.61.51,5.15,4.26,5.33,2.07a53.25,53.25,0,0,1,2-10.69l-.16.54a59.07,59.07,0,0,1,27.13-33.57,56,56,0,0,1,11.43-4.89l-.54.16a52.75,52.75,0,0,1,9.31-1.86c2.27-.24-1.6-4.8-2.07-5.33a25.84,25.84,0,0,0-4.22-3.95c-.83-.59-2.16-1.76-3.23-1.65Z" transform="translate(-97.27 -866.56)"/><path class="cls-1" d="M520.42,882.36a5.88,5.88,0,0,1,2.94-2l-.55.16a8,8,0,0,1,3.05-.2c.21,0,.41.06.62.1.91.15-.47-.25.38.11.19.08.41.17.6.23,1,.33-.77-.44,0,0,1.13.63-1.65-1.29-1.4-1.06a19.78,19.78,0,0,1-2.73-2.91c.77,1-.52-.93-.1-.18.12.23.54,1,.09.08.25.52.48,1,.68,1.6.11.3.22.61.32.92a6.78,6.78,0,0,0,.2.66,56.62,56.62,0,0,1,1.26,8.1c.32,2.86.56,5.74.72,8.62a156.39,156.39,0,0,1-6.49,53.47l.17-.55a154.83,154.83,0,0,1-15,34c-.44.75.28,1.9.62,2.49a20.93,20.93,0,0,0,3.36,4.14c.53.51,5.75,5.46,6.63,4a157,157,0,0,0,19.19-51.37,155.23,155.23,0,0,0,2.61-27.12q.06-6.93-.51-13.84a78.14,78.14,0,0,0-1.88-13.21,24.72,24.72,0,0,0-3.83-8.12,31.91,31.91,0,0,0-9.86-9.25c-3.53-2-8.85-3.17-11.79.49-.52.64.35,2,.61,2.49a20.63,20.63,0,0,0,3.37,4.14,20.19,20.19,0,0,0,4.13,3.36c.5.27,2,1.25,2.5.61Z" transform="translate(-97.27 -866.56)"/><path class="cls-1" d="M510,968.79a40.22,40.22,0,0,1-1.69,10.39l.16-.54a41.91,41.91,0,0,1-24.27,26.53c-.69.27.6,2.46.62,2.49a20.59,20.59,0,0,0,3.36,4.14,20.31,20.31,0,0,0,4.14,3.36c.77.43,1.59,1,2.49.61A41.9,41.9,0,0,0,519.11,989a41,41,0,0,0,1.78-10.66c0-1-1.13-2.53-1.65-3.23a25.9,25.9,0,0,0-4-4.22c-.56-.47-5.28-4.25-5.34-2.07Z" transform="translate(-97.27 -866.56)"/><path class="cls-1" d="M430,1054.87a345.67,345.67,0,0,0-21.44,44c-1.75,4.33-3.39,8.69-5,13.09a3,3,0,0,0,.62,2.49,20.25,20.25,0,0,0,3.36,4.13c.39.39,6.12,5.41,6.63,4a345.16,345.16,0,0,1,19.63-44.82q3.26-6.2,6.77-12.25c.43-.76-.27-1.89-.62-2.49a20.65,20.65,0,0,0-3.36-4.14c-.52-.5-5.77-5.46-6.63-4Z" transform="translate(-97.27 -866.56)"/><path class="cls-1" d="M347.78,1179.36a122.37,122.37,0,0,0-9.43,40.63c-.05,1,1.15,2.56,1.65,3.23a25.06,25.06,0,0,0,3.95,4.22c.58.49,5.21,4.26,5.33,2.07a121.89,121.89,0,0,1,4.86-27.85l-.16.54a126.41,126.41,0,0,1,4.41-12.23c.36-.85-.19-1.76-.61-2.49a20.63,20.63,0,0,0-3.37-4.14c-.42-.41-6-5.43-6.63-4Z" transform="translate(-97.27 -866.56)"/><path class="cls-1" d="M296.5,1313.28c-3.6,1.42-5.16,5-6,8.51-1,4.4-.78,9-.86,13.53l-.61,34.36-.34,19.42c0,1,1.11,2.51,1.64,3.23a25.9,25.9,0,0,0,3.95,4.22c.55.46,5.3,4.25,5.34,2.07q.51-28.5,1-57c.07-3.94,0-7.91,1.18-11.72l-.16.55c.91-2.87,2.54-5.41,5.43-6.56.69-.27-.6-2.46-.61-2.49a26.1,26.1,0,0,0-7.5-7.5c-.77-.43-1.6-1-2.49-.61Z" transform="translate(-97.27 -866.56)"/><path class="cls-1" d="M290,1370.07a392,392,0,0,0,6.31,127.74q3.87,17.91,9.38,35.41a12.69,12.69,0,0,0,2.56,3.78,24.68,24.68,0,0,0,4.22,4c1,.75,4.65,3.09,3.71.09a386.42,386.42,0,0,1-14-62,393.17,393.17,0,0,1-3.74-63.59c.27-12,1.1-24,2.47-35.9.11-.94-1.2-2.62-1.64-3.23a25.53,25.53,0,0,0-4-4.22c-.64-.54-5.08-4.26-5.33-2.07Z" transform="translate(-97.27 -866.56)"/><path class="cls-1" d="M290.82,1494.82q4.41,31.85,9.88,63.51t11.95,62.9q3.68,17.71,7.68,35.37c.67,2.94,3.37,5.56,5.6,7.45a13.22,13.22,0,0,0,3.78,2.56c.43.15,1.78.51,1.56-.49q-7.12-31.33-13.19-62.9t-11-63.06q-2.82-17.88-5.3-35.81a7.75,7.75,0,0,0-1.64-3.23,25.5,25.5,0,0,0-3.95-4.22,13.36,13.36,0,0,0-3.78-2.56c-.49-.18-1.7-.5-1.56.48Z" transform="translate(-97.27 -866.56)"/><path class="cls-2" d="M433,1443.06c-25.08-58.76-19.26-126.17,2.28-185.07,20.32-55.57,54.71-108.34,103.33-143,26.63-19,57-31.88,87.75-42.74,32.4-11.47,65.81-20.42,99.92-25,33.33-4.46,67.4-4.64,100.55,1.44a267.24,267.24,0,0,1,76.48,26.65c47.13,24.94,84.94,61.74,110,108.86,27.85,52.44,36.45,114.36,27.09,172.77-9.41,58.73-37.77,115-82.32,154.84a215.27,215.27,0,0,1-77.15,44.28c-30,9.78-61.78,13.51-93.25,14.71-32.48,1.24-65.14.1-97.59-1.51-17.54-.86-35.09-2.26-52.4-5.32a262.74,262.74,0,0,1-50-14.37,541.67,541.67,0,0,1-80.71-39,251.84,251.84,0,0,1-31.88-22.15c-9.67-8.06-17.36-15.72-24.82-26a117.61,117.61,0,0,1-16.89-33.32c-1-3-4.28-5.9-6.78-7.73-1-.75-4.68-3.07-3.72-.09C440.77,1476.82,494,1512,543.6,1536.72c29.82,14.87,60.76,29,93.46,36.18,34.37,7.49,70,7.91,105,8.84,63.41,1.69,130.65-.07,187.57-31.52,53.43-29.51,92-82.29,110.9-139.68a287.14,287.14,0,0,0-.22-179.67c-18.53-55.36-55.53-103.51-101.78-138.73-46.87-35.67-103.27-56.56-162.19-58.86-35.16-1.37-70.37,3.25-104.5,11.5a544.6,544.6,0,0,0-97.5,33.29c-29.21,13.3-55.89,30.83-78.46,53.75-21.24,21.56-38.68,46.7-52.65,73.5-29.24,56.07-45.52,122.15-34.11,185.21a208.76,208.76,0,0,0,13.33,44.71c1.32,3.08,4.13,5.78,6.78,7.73.85.63,5,3.06,3.72.09Z" transform="translate(-97.27 -866.56)"/><path class="cls-3" d="M221.21,1990.9c6.14-48.92,11.85-97.93,15.18-147.13,3.27-48.21,4.24-96.64,1-144.88-3.07-46.31-10-92.42-22.12-137.26a583.5,583.5,0,0,0-22.27-66c-8.67-21.49-18.08-42.75-24.86-64.95-13.89-45.46-14-93.55-12.57-140.64.18-5.9.39-11.81.59-17.71.09-2.65-3.81-5.9-5.6-7.45-.56-.49-5.26-4.25-5.33-2.07-1.64,47-3.27,94.78,7.32,141,5.17,22.57,13.56,44.09,22.34,65.46s17.45,43,24.3,65.3c13.75,44.65,21.85,90.93,25.93,137.44,4.19,47.83,4.06,96,1.43,143.87-2.7,49.24-8,98.3-14,147.23q-1.12,9.18-2.28,18.35c-.31,2.49,4,6,5.6,7.45.65.56,5.06,4.25,5.33,2.07Z" transform="translate(-97.27 -866.56)"/><path class="cls-3" d="M304,1522a646.84,646.84,0,0,1-57.09-100.91c-16.28-36-29.71-73.52-38.9-111.93-5.49-22.94-9.15-46.35-9.44-70l-10.15-7.57a172.81,172.81,0,0,0,40.09,50.79c.76.68,6.06,4.86,5.11,1.23-9.43-36.14-19.3-78.55,1.1-112.84,1.5-2.53-8.56-12.43-10.61-10.6a32.62,32.62,0,0,1-24,8.31l10.23,10.22A518.87,518.87,0,0,1,238,1064.87l-10.77-10.06,4.81,20.35c.63,2.67,2.92,5,4.86,6.77.45.4,5.44,4.61,5.91,3.29,14.18-40.11,40.36-74.37,69.61-104.74,15-15.57,30.67-30.91,47.28-44.77,8.7-7.26,18.06-13.54,28.66-17.68,10.87-4.24,22.36-6.51,33.75-8.85l83.45-17.11c2.22-.46-1.5-4.68-2.07-5.34-1.21-1.39-5.12-6.07-7.45-5.6l-74.86,15.36c-11.47,2.35-23.05,4.45-34.28,7.82a98.64,98.64,0,0,0-30.29,14.88c-8.95,6.55-17,14.22-25.16,21.76-7.91,7.35-15.71,14.81-23.32,22.47-15,15.14-29.35,31.07-42,48.31-14.13,19.31-26,40.29-34,62.89L243,1084.68l-4.81-20.35c-.63-2.67-2.93-5-4.87-6.77-.45-.41-5.41-4.62-5.9-3.3a524.09,524.09,0,0,0-28,115c-.24,1.88,3,5,4.14,6.09,1.49,1.49,3.83,4,6.09,4.14a34.42,34.42,0,0,0,25.13-8.64l-10.61-10.6c-21,35.25-10.68,78.51-1,115.61l5.11,1.23a133.42,133.42,0,0,1-30.45-39.8,21.5,21.5,0,0,0-6.22-6.63c-.5-.37-3.95-2.82-3.93-.94.51,42,11.48,83.47,24.89,123.07a666.53,666.53,0,0,0,48.06,108.66,675.27,675.27,0,0,0,35.77,57.54c1.64,2.37,4.8,6.06,7.73,6.78s.67-2.62-.09-3.72Z" transform="translate(-97.27 -866.56)"/><path class="cls-3" d="M1235.49,1005.41c44.58,44.58,54.32,113.11,63,172.66,5.4,37,10.73,74.19,10.42,111.65-.29,36.41-6.84,71.83-21.56,105.21-26.6,60.31-71.63,110.9-93.85,173.35-12.35,34.72-18,71.47-22,108a810,810,0,0,0-4.65,108.23c1.83,71.21,13.94,142.54,39.46,209.21q4.74,12.38,10.09,24.52a20.36,20.36,0,0,0,6.78,7.73c.83.6,5,3.06,3.72.09-29.5-67.14-44.57-139.69-48.37-212.77a787,787,0,0,1,2.11-109.22c3.26-37.29,8.09-75,18.84-111,19.68-65.78,65.58-118,94.68-179.26a262.65,262.65,0,0,0,25.34-101.28c1.78-38-3-76-8.42-113.59-8.82-61.38-17.64-127.7-57-178.13a196.14,196.14,0,0,0-16-18.08c-.81-.81-5.25-5.35-6.62-4s3.4,6.05,4,6.63Z" transform="translate(-97.27 -866.56)"/><path class="cls-4" d="M1303.23,1467.59c.31,37.49-11.32,73.48-23,108.69-11.78,35.71-22.54,71.69-30.38,108.49-7.91,37.12-13.05,74.9-14.11,112.87a469.33,469.33,0,0,0,8.62,105.46,384.75,384.75,0,0,0,34.33,99.73q3,5.81,6.15,11.49a21.38,21.38,0,0,0,7.5,7.5c2.29,1.34,3.23.55,1.88-1.87-17-30.4-29.12-63.46-36.81-97.4a459.5,459.5,0,0,1-10.93-104.24c.24-37.53,4.6-75,11.8-111.77,7.25-37.11,17.43-73.57,29.21-109.48,11.36-34.63,23.91-69.62,26.25-106.29q.43-6.82.37-13.66c0-2.72-3.74-5.84-5.6-7.45-.52-.45-5.35-4.23-5.33-2.07Z" transform="translate(-97.27 -866.56)"/><path class="cls-4" d="M290.49,1505a210.66,210.66,0,0,1-14.62-55.31c-.67-5.39-1.11-10.82-1.36-16.25a7.37,7.37,0,0,0-1.65-3.23,25.9,25.9,0,0,0-3.95-4.22c-.49-.41-5.44-4.22-5.34-2.07a218,218,0,0,0,10.65,57.75q2.59,7.88,5.77,15.51c1.27,3,4.13,5.84,6.78,7.73.86.61,5,3.07,3.72.09Z" transform="translate(-97.27 -866.56)"/><path class="cls-4" d="M288.82,1362.88c-.2-.36-.4-.73-.59-1.1.47.91-.09-.19-.18-.38q-.54-1.12-1-2.28-1-2.3-1.69-4.68a48.6,48.6,0,0,1-1.84-9.52,52.8,52.8,0,0,1,1.91-19.92l-.16.54c.44-1.46.94-2.89,1.51-4.31a2.94,2.94,0,0,0-.62-2.49,20.93,20.93,0,0,0-3.36-4.14c-.41-.4-6-5.42-6.63-4-6.1,15.28-4.56,32.28,3.29,46.63a20,20,0,0,0,3.37,4.14,20.25,20.25,0,0,0,4.13,3.36c.55.3,1.89,1.21,2.49.61s-.38-2.06-.61-2.49Z" transform="translate(-97.27 -866.56)"/><path class="cls-4" d="M307.85,1289.87l4.26,6.37a27.25,27.25,0,0,0,5.52,6.07c.45.36,3.79,3.12,4.47,2a136.29,136.29,0,0,0,21.2-63.29,133.31,133.31,0,0,0,.07-19,7.37,7.37,0,0,0-1.65-3.23,25.08,25.08,0,0,0-4-4.22,13.22,13.22,0,0,0-3.78-2.56c-.53-.19-1.62-.49-1.56.48a135,135,0,0,1-5.42,47.75l.16-.54a134.76,134.76,0,0,1-15.67,34l10,8.12-4.27-6.38a23.17,23.17,0,0,0-7.5-7.5c-.55-.3-1.89-1.21-2.49-.61s.35,2.09.62,2.49Z" transform="translate(-97.27 -866.56)"/><path class="cls-4" d="M243.13,1194.75a97,97,0,0,1,4.55,47.09,99.23,99.23,0,0,1-3,13.5l.16-.55c-.43,1.43-.89,2.84-1.38,4.25a3,3,0,0,0,.62,2.49,20.59,20.59,0,0,0,3.36,4.14c.38.38,6.13,5.4,6.63,4a99.71,99.71,0,0,0,3.69-52.27,104.62,104.62,0,0,0-4.13-14.81,13.51,13.51,0,0,0-2.56-3.77,25.53,25.53,0,0,0-4.22-4c-.95-.68-4.8-3.08-3.72-.09Z" transform="translate(-97.27 -866.56)"/><path class="cls-4" d="M300.91,1075.52l8.2-2.92-10-8.12c.41.62.8,1.24,1.17,1.88.17.29.33.59.49.88-.53-.94.09.21.15.34a31.13,31.13,0,0,1,1.45,3.72,34.57,34.57,0,0,1,1.44,8,49.27,49.27,0,0,1-2.14,17.27l.16-.54c-3.13,10.19-8.72,19.33-14.27,28.35-.46.74.28,1.92.61,2.49a20.93,20.93,0,0,0,3.36,4.14c.54.53,5.72,5.46,6.63,4,9.29-15.08,19.38-32.11,16-50.58a37.83,37.83,0,0,0-5.72-14.34A27.23,27.23,0,0,0,303,1064c-1.08-.87-3-2.59-4.47-2l-8.19,2.92c-.7.25.61,2.49.61,2.49a20.65,20.65,0,0,0,3.36,4.14,20.19,20.19,0,0,0,4.14,3.36,3,3,0,0,0,2.49.62Z" transform="translate(-97.27 -866.56)"/><path class="cls-4" d="M384.4,1092.88a79.12,79.12,0,0,1-1,42.53l.17-.54a78.51,78.51,0,0,1-10,21.08c-.47.71.31,2,.62,2.49a20.31,20.31,0,0,0,3.36,4.14,19.67,19.67,0,0,0,4.14,3.36c.45.26,2,1.28,2.49.62a80.85,80.85,0,0,0,13.32-50.66,81.78,81.78,0,0,0-2.68-15.2,12.21,12.21,0,0,0-2.56-3.78,25.11,25.11,0,0,0-4.22-4c-1.12-.8-4.52-3.07-3.71-.09Z" transform="translate(-97.27 -866.56)"/><path class="cls-4" d="M463.42,997.36c1.32,1.17-2.5-2.67-1.35-1.35.84,1-1-1.32-.29-.33-1.1-1.56-.18-.22.05.15.54.89-.31-.78.05.11a14.87,14.87,0,0,1,1.23,4.27,23.57,23.57,0,0,1-.85,10l.17-.54c-2.8,8.92-10.09,15.46-16.84,21.51-.58.52.44,2.18.62,2.49a20.59,20.59,0,0,0,3.36,4.14,20.87,20.87,0,0,0,4.14,3.36c.58.32,1.85,1.19,2.49.61,5.51-4.94,11.2-10,14.76-16.64a24.89,24.89,0,0,0,2.2-19.28c-1.68-5.48-5.79-10.14-10-13.85-.48-.42-5.21-4.37-5.34-2.08-.06,1.08,1.08,2.49,1.65,3.23a28.18,28.18,0,0,0,3.95,4.22Z" transform="translate(-97.27 -866.56)"/><path class="cls-4" d="M394.78,952.72a73.12,73.12,0,0,1-1.83,7.74l.16-.54a70.69,70.69,0,0,1-15.05,26.82c-.54.61.38,2.09.61,2.5a20.58,20.58,0,0,0,3.37,4.13,20.24,20.24,0,0,0,4.13,3.37c.53.29,1.94,1.23,2.5.61a71.56,71.56,0,0,0,17-35.11c.16-.88-1.25-2.69-1.64-3.23a25.9,25.9,0,0,0-3.95-4.22c-.72-.6-4.95-4.24-5.34-2.07Z" transform="translate(-97.27 -866.56)"/><path class="cls-4" d="M996.84,912.72A193.77,193.77,0,0,1,1121,921.79q3.65,1.55,7.22,3.24c1.13.54,2.26,1.09,3.37,1.65.28.13,1.61.81.77.38.74.38,1.48.76,2.21,1.15q6.95,3.69,13.56,7.95l1.29.84c.25.16,1.32,1.08,1.6,1.06-.32,0-1-.68-.32-.22l.79.55,1.74,1.21q3,2.1,5.88,4.32l2.73,2.13.6.48c1.08.86-1.08-.88-.36-.28l1.64,1.34q2.8,2.34,5.52,4.78l1.28,1.17c.44.4,2,1.88.09.07.93.88,1.86,1.76,2.78,2.66q2.61,2.55,5.13,5.2l.53.55c1,1-1.12-1.21-.44-.47l1.17,1.27c.87.95,1.72,1.9,2.57,2.87,1.61,1.83,3.17,3.69,4.72,5.57.71.88-.36-.44-.41-.5.21.25.4.5.6.75l1.07,1.36c.79,1,1.57,2,2.34,3,1.47,2,2.89,3.93,4.29,5.93l1,1.42c.59.86-.17.29-.11-.16a4.73,4.73,0,0,0,.42.64c.72,1.06,1.42,2.14,2.11,3.22q2,3.07,3.82,6.23c1.23,2.1,2.43,4.22,3.58,6.37.55,1,1.08,2,1.62,3.06s-.3-.6.05.1c.14.28.29.57.43.86.29.57.57,1.14.86,1.72q3.21,6.57,5.92,13.35t4.89,13.76c1.46,4.69,2.64,9,3.68,13.63q.81,3.56,1.47,7.16a8.27,8.27,0,0,0,1.65,3.23,25.87,25.87,0,0,0,4,4.22,13.42,13.42,0,0,0,3.78,2.56c.45.16,1.74.5,1.56-.49a198,198,0,0,0-20.48-57.54A214.94,214.94,0,0,0,1176.44,954a207.5,207.5,0,0,0-54-38.49A197.8,197.8,0,0,0,1059.7,897,192.85,192.85,0,0,0,995,899.93c-2.58.56-5.14,1.19-7.7,1.86-.86.23-.78.73-.49,1.55a13.42,13.42,0,0,0,2.56,3.78,26.35,26.35,0,0,0,4.22,4c.73.52,2.3,1.89,3.23,1.64Z" transform="translate(-97.27 -866.56)"/><path class="cls-4" d="M984.37,909a128.28,128.28,0,0,0,8.56,52.54,14.32,14.32,0,0,0,2.56,3.78,25.06,25.06,0,0,0,4.22,4c.91.65,4.88,3.08,3.72.09a124.06,124.06,0,0,1-8.13-50.84c.05-1-1.14-2.55-1.64-3.23a25.53,25.53,0,0,0-4-4.22c-.57-.49-5.22-4.26-5.33-2.07Z" transform="translate(-97.27 -866.56)"/><path class="cls-4" d="M1263.46,1163.14a84,84,0,0,0,7.08-35.29l-9.29-6.3c-1-1.54.09.17.33.56s.63,1,.92,1.57c.18.3,1,1.86.47.82.34.64.64,1.3.94,2a64.37,64.37,0,0,1,2.71,7.12,113.79,113.79,0,0,1,3.36,14.64c1.83,10.35,3.1,20.91,6.62,30.87a58.36,58.36,0,0,0,9.06,16.59,31,31,0,0,0,3.95,4.22,13.93,13.93,0,0,0,3.78,2.56c3,1.06.57-2.89-.09-3.72-.37-.48-.74-1-1.1-1.45a7.12,7.12,0,0,0-.63-.89c.89.94.51.77.27.38-.71-1.12-1.38-2.25-2-3.41s.44.92-.09-.17l-.32-.65c-.26-.54-.5-1.08-.74-1.63-.53-1.2-1-2.43-1.46-3.67a88,88,0,0,1-3.71-14.38c-2-10.4-3.14-21-6.29-31.12a64,64,0,0,0-8.32-17.13,23.26,23.26,0,0,0-6-5.79c-.45-.31-3.33-2.19-3.29-.5a83.32,83.32,0,0,1-3.43,25.3l.16-.54a84.69,84.69,0,0,1-3.49,9.44c-.37.85.2,1.78.62,2.5a20.25,20.25,0,0,0,3.36,4.13c.43.43,6,5.44,6.63,4Z" transform="translate(-97.27 -866.56)"/><path class="cls-4" d="M1242.71,1203.51c-.38-.73,0-.06,0,.08l.39.78c.23.46.45.93.67,1.39.47,1,.93,2,1.37,3q1.36,3.12,2.54,6.32a105.3,105.3,0,0,1,3.71,12.41,111.52,111.52,0,0,1,2.83,26.38A109.18,109.18,0,0,1,1253,1269c-.14.9,1.23,2.66,1.64,3.22a25.6,25.6,0,0,0,4,4.23c.68.57,5,4.25,5.33,2.07a113.14,113.14,0,0,0-5.29-54.36,119.14,119.14,0,0,0-6.58-15,18.32,18.32,0,0,0-3.36-4.13,20.09,20.09,0,0,0-4.14-3.37c-.55-.3-1.89-1.21-2.49-.61s.39,2,.62,2.49Z" transform="translate(-97.27 -866.56)"/><path class="cls-4" d="M1243.37,1372.24a118.45,118.45,0,0,1-3.15,13.43l.16-.54a116.06,116.06,0,0,1-6.28,16.29c-.39.82.22,1.81.62,2.49a20.31,20.31,0,0,0,3.36,4.14c.45.44,5.93,5.45,6.63,4a117.44,117.44,0,0,0,9.59-30.27c.16-.88-1.24-2.68-1.64-3.23a26.32,26.32,0,0,0-4-4.22c-.71-.6-5-4.25-5.34-2.07Z" transform="translate(-97.27 -866.56)"/><path class="cls-4" d="M1098.55,958.19l1.15.89c.65.51-1.38-1.14-.52-.42l.49.41c.41.35.82.7,1.22,1.06l.48.43c.88.79-1.28-1.22-.63-.6s1.39,1.35,2.06,2c.87.9-.43-.45-.59-.63.14.16.3.31.44.47.36.4.72.81,1.06,1.21l.42.5c.19.22.85,1,0,.05s-.23-.29-.06-.07l.49.63c.59.77,1.16,1.56,1.71,2.35.68,1-.61-.93-.23-.34l.44.67c.26.41.52.82.77,1.23.53.87,1,1.76,1.53,2.66a20,20,0,0,0,3.36,4.14,20.31,20.31,0,0,0,4.14,3.36c.55.31,1.89,1.22,2.49.62s-.38-2.07-.62-2.49a82.25,82.25,0,0,0-22.72-25.82c-.62-.48-2.27-1.72-3.23-1.65s-.74.92-.48,1.56a13.86,13.86,0,0,0,2.56,3.78,29.79,29.79,0,0,0,4.22,4Z" transform="translate(-97.27 -866.56)"/><path class="cls-4" d="M1206.09,1064.1l1,.56c.91.54-1-.73.09.06.23.16,1.27,1,.31.21s.17.23.4.39-1.33-1.31-.8-.74c.23.24.85.89,0-.08s0,0,.17.22c0,.06.36.35.35.42s-1-1.26-.56-.68c.16.22,1.07,1.52.53.69s.15.25.27.44.38.63.57,1,.42.76.62,1.14c-.45-.85,0,.06.17.4a37.7,37.7,0,0,1,1.71,4.54,30.41,30.41,0,0,1,1,4.25,44.59,44.59,0,0,1,.52,5.66,66.93,66.93,0,0,1-.91,12.48c-.76,4.79-1.88,9.51-3,14.23-.19.83,1.3,2.75,1.65,3.23a25.5,25.5,0,0,0,4,4.22c.79.67,4.83,4.23,5.34,2.07,2.19-9.21,4.42-18.62,3.85-28.15a42.21,42.21,0,0,0-8.36-22.8,48.5,48.5,0,0,0-14.35-13.09c-.36-.2-1.93-1.18-2.49-.62s.4,2.14.61,2.5a22.6,22.6,0,0,0,7.5,7.5Z" transform="translate(-97.27 -866.56)"/><path class="cls-4" d="M1004.41,1168.52a561.38,561.38,0,0,1,3.4,78.1A421.83,421.83,0,0,1,998.6,1324a332.87,332.87,0,0,1-21.81,66.35,294.32,294.32,0,0,1-33.63,56.7,251.56,251.56,0,0,1-46,46.72c-2.16,1.68-4.35,3.31-6.57,4.91l10.61,10.61a159.77,159.77,0,0,0,12-48.42c.08-.95-1.17-2.6-1.64-3.23a29.23,29.23,0,0,0-3.23-3.54c-.76-.71-4.7-4.55-5.9-3.29A218.22,218.22,0,0,1,828,1501.4a227,227,0,0,1-88.44,17.28,212.82,212.82,0,0,1-50.31-6.43c-1-.25-.59,1.28-.49,1.56a13,13,0,0,0,2.56,3.78c2,2.23,4.45,4.84,7.45,5.59a218.43,218.43,0,0,0,90.49,3.13,230,230,0,0,0,84.19-32.42,213.14,213.14,0,0,0,39.6-32.51l-10.77-10.07a156,156,0,0,1-11.69,47.33c-.87,2.07,2.69,5.37,4,6.63a21.23,21.23,0,0,0,4.14,3.36c.62.37,1.77,1.13,2.49.62a248.38,248.38,0,0,0,47.68-45.4A289.28,289.28,0,0,0,984,1408.13a330.65,330.65,0,0,0,23.25-64.88,408.17,408.17,0,0,0,11.08-77.06,538.22,538.22,0,0,0-2-78.47q-.47-4.85-1-9.67a7.54,7.54,0,0,0-1.65-3.23,25.5,25.5,0,0,0-4-4.22c-.45-.38-5.57-4.18-5.34-2.08Z" transform="translate(-97.27 -866.56)"/><path class="cls-3" d="M493.1,1424.3l-.41-.32c-.6-.49-.54-.43.19.15-.16,0-.64-.52-.8-.66-.66-.56-1.31-1.13-1.95-1.7-1.36-1.21,1.24,1.22-.06,0l-.74-.72c-.31-.3-.61-.61-.91-.92s-1.59-1.9-.24-.22c-.54-.67-1.16-1.28-1.72-1.93l-.67-.78c-.22-.27-1.42-1.51-.17-.2a39.06,39.06,0,0,1-3.09-4.14c-1-1.4.64,1-.3-.43-.19-.29-.38-.58-.56-.87-.47-.73-.93-1.46-1.37-2.2q-1.49-2.44-2.8-5c.26.5-.13-.26-.14-.29l-.69-1.41c-.37-.78-.73-1.57-1.09-2.37-.7-1.59-1.37-3.2-2-4.82-5.5-14.42-7.33-29.91-6.64-45.27.78-17.33,4.64-34.42,9.85-50.92a338.3,338.3,0,0,1,16.59-42.33,344.28,344.28,0,0,1,49.08-76.18c19.43-22.87,41.87-44,67.83-59.31,12.78-7.51,26.53-13.59,41-17a116.56,116.56,0,0,1,21.91-3.07c6.28-.26,12.9-.12,18.75,2.43l.81.37c-.89-.42.39.23.47.27a4.29,4.29,0,0,1,.75.46c-1-1.1-.28.08.13.15-.35-.06-1.47-1.28-1.55-1.36,1,.94-.51-.61-.76-.88-1-1.11.68,1.12-.38-.56.24.38.46.76.68,1.16a21.22,21.22,0,0,0,7.5,7.5c.54.31,1.9,1.21,2.49.61s-.38-2.06-.61-2.49c-4.36-7.9-12.47-14.66-21.22-17.07-7-1.92-14.27-1.83-21.46-1.21a132.74,132.74,0,0,0-44.09,12.21c-28.52,13.19-53,34.28-74.07,57.26a345.07,345.07,0,0,0-53.49,77.18,340.09,340.09,0,0,0-18.39,43.47c-5.71,16.63-10.34,33.77-12.11,51.3-1.69,16.66-.61,33.51,4.39,49.54a102.35,102.35,0,0,0,35.13,50.25c.85.66,4.79,3,3.71.09s-4.3-5.81-6.78-7.73Z" transform="translate(-97.27 -866.56)"/></svg>